<svg width="7" height="10" viewBox="0 0 7 10" fill="none" xmlns="http://www.w3.org/2000/svg">
<path d="M4.24583 4.06321H6.44583L6.20139 5.04099H4.24583V9.44099H3.26806V5.04099H1.3125V4.06321H3.26806V3.14801C3.26806 2.27632 3.35899 1.96001 3.52912 1.64126C3.69584 1.32632 3.95338 1.06877 4.26832 0.902058C4.58708 0.731925 4.90339 0.640991 5.77508 0.640991C6.03028 0.640991 6.25419 0.665436 6.44583 0.714325V1.61877H5.77508C5.12779 1.61877 4.93077 1.6569 4.72983 1.76446C4.58121 1.84366 4.47072 1.95415 4.39152 2.10277C4.28397 2.3037 4.24583 2.50072 4.24583 3.14801V4.06321Z" fill="black" stroke="black" stroke-width="0.8"/>
</svg>
