<svg width="10" height="6" viewBox="0 0 10 6" fill="none" xmlns="http://www.w3.org/2000/svg">
<path d="M9.076 1.29163C9.076 1.29163 8.99479 0.716528 8.74482 0.464006C8.42832 0.131654 8.07441 0.130024 7.9121 0.110474C6.74986 0.0257568 5.00483 0.0257568 5.00483 0.0257568H5.00159C5.00159 0.0257568 3.25658 0.0257568 2.09432 0.110474C1.932 0.130024 1.57812 0.131654 1.26159 0.464006C1.01161 0.716528 0.932066 1.29163 0.932066 1.29163C0.932066 1.29163 0.847656 1.96774 0.847656 2.64222V3.27434C0.847656 3.94882 0.930443 4.62493 0.930443 4.62493C0.930443 4.62493 1.01161 5.20001 1.25997 5.45252C1.5765 5.78492 1.99206 5.77348 2.17711 5.80931C2.84265 5.87287 5.00321 5.89242 5.00321 5.89242C5.00321 5.89242 6.74986 5.88915 7.9121 5.80609C8.07441 5.78653 8.42832 5.78492 8.74482 5.45252C8.99479 5.20001 9.076 4.62493 9.076 4.62493C9.076 4.62493 9.15877 3.95044 9.15877 3.27434V2.64222C9.15877 1.96774 9.076 1.29163 9.076 1.29163ZM4.14451 4.04168V1.69729L6.38946 2.87356L4.14451 4.04168Z" fill="black"/>
</svg>
