<svg width="10" height="10" viewBox="0 0 10 10" fill="none" xmlns="http://www.w3.org/2000/svg">
<path d="M7.21053 2.14641C7.10447 2.14641 7.0008 2.17786 6.91261 2.23678C6.82443 2.29571 6.75567 2.37946 6.7151 2.47744C6.67452 2.57543 6.66391 2.68325 6.68459 2.78727C6.70527 2.89129 6.75633 2.98685 6.83134 3.06185C6.90636 3.13684 7.00187 3.18791 7.1059 3.20861C7.20994 3.22929 7.31778 3.21867 7.41574 3.17809C7.51375 3.1375 7.59747 3.06877 7.65639 2.98058C7.71532 2.8924 7.74678 2.78872 7.74678 2.68266C7.74678 2.54043 7.6903 2.40404 7.58972 2.30347C7.48914 2.2029 7.35276 2.14641 7.21053 2.14641ZM9.26616 3.22784C9.25746 2.85707 9.18804 2.49023 9.06059 2.14194C8.94697 1.84393 8.77013 1.57409 8.54222 1.35097C8.32093 1.12191 8.05048 0.946178 7.75125 0.837063C7.40388 0.705754 7.03661 0.634723 6.66534 0.627032C6.19166 0.60022 6.03972 0.60022 4.82422 0.60022C3.60872 0.60022 3.45678 0.60022 2.98309 0.627032C2.61181 0.634723 2.24456 0.705754 1.89719 0.837063C1.59853 0.947287 1.32829 1.12287 1.10622 1.35097C0.877163 1.57225 0.701427 1.84273 0.592312 2.14194C0.461003 2.48932 0.389972 2.85656 0.382281 3.22784C0.355469 3.70153 0.355469 3.85347 0.355469 5.06897C0.355469 6.28447 0.355469 6.43641 0.382281 6.9101C0.389972 7.28136 0.461003 7.64863 0.592312 7.996C0.701427 8.29523 0.877163 8.56568 1.10622 8.78697C1.32829 9.01505 1.59853 9.19065 1.89719 9.30088C2.24456 9.4322 2.61181 9.50322 2.98309 9.51091C3.45678 9.53772 3.60872 9.53772 4.82422 9.53772C6.03972 9.53772 6.19166 9.53772 6.66534 9.51091C7.03661 9.50322 7.40388 9.4322 7.75125 9.30088C8.05048 9.19178 8.32093 9.01601 8.54222 8.78697C8.77114 8.56466 8.94816 8.29457 9.06059 7.996C9.18804 7.64768 9.25746 7.28088 9.26616 6.9101C9.26616 6.43641 9.29297 6.28447 9.29297 5.06897C9.29297 3.85347 9.29297 3.70153 9.26616 3.22784ZM8.46178 6.85647C8.4585 7.14015 8.40714 7.4212 8.30984 7.68766C8.23846 7.88214 8.12388 8.05785 7.97469 8.20156C7.82972 8.34927 7.65437 8.46361 7.46078 8.53672C7.19432 8.63402 6.91327 8.68538 6.62959 8.68866C6.18272 8.711 6.01737 8.71547 4.84209 8.71547C3.66681 8.71547 3.50147 8.71547 3.05459 8.68866C2.76006 8.6942 2.46677 8.6488 2.18766 8.5546C2.00255 8.47779 1.83523 8.36369 1.69609 8.21944C1.54777 8.0759 1.4346 7.90001 1.36541 7.70553C1.2563 7.43526 1.19579 7.14783 1.18666 6.85647C1.18666 6.4096 1.15984 6.24425 1.15984 5.06897C1.15984 3.89369 1.15984 3.72834 1.18666 3.28147C1.18866 2.99147 1.2416 2.70408 1.34306 2.43241C1.42174 2.24378 1.54249 2.07565 1.69609 1.94084C1.83186 1.7872 1.99965 1.66516 2.18766 1.58334C2.46005 1.48505 2.74714 1.43368 3.03672 1.43141C3.48359 1.43141 3.64894 1.40459 4.82422 1.40459C5.9995 1.40459 6.16484 1.40459 6.61172 1.43141C6.8954 1.43466 7.17645 1.48603 7.44291 1.58334C7.64597 1.65871 7.82823 1.78124 7.97469 1.94084C8.12114 2.07811 8.23554 2.24594 8.30984 2.43241C8.40917 2.70452 8.46059 2.99179 8.46178 3.28147C8.48413 3.72834 8.48859 3.89369 8.48859 5.06897C8.48859 6.24425 8.48413 6.4096 8.46178 6.85647ZM4.82422 2.7765C4.371 2.77738 3.92822 2.91258 3.55181 3.16502C3.17541 3.41746 2.88227 3.7758 2.70945 4.19477C2.53662 4.61374 2.49185 5.07454 2.58082 5.51894C2.66977 5.96334 2.88846 6.3714 3.20925 6.69154C3.53003 7.01174 3.93852 7.22964 4.38309 7.3177C4.82766 7.40583 5.28837 7.36013 5.70701 7.1865C6.12564 7.01288 6.48344 6.71901 6.73512 6.34215C6.9868 5.96523 7.12116 5.52218 7.12116 5.06897C7.12175 4.76738 7.06271 4.46864 6.94741 4.18995C6.83218 3.91125 6.6629 3.6581 6.44947 3.44505C6.23599 3.232 5.9825 3.06325 5.70358 2.94852C5.42466 2.83378 5.12581 2.77532 4.82422 2.7765ZM4.82422 6.55706C4.5299 6.55706 4.2422 6.46977 3.99748 6.30628C3.75276 6.14276 3.56203 5.91035 3.4494 5.63844C3.33677 5.36652 3.3073 5.06732 3.36472 4.77866C3.42214 4.48999 3.56386 4.22484 3.77198 4.01673C3.98009 3.80862 4.24524 3.66689 4.53391 3.60947C4.82257 3.55205 5.12177 3.58152 5.39369 3.69415C5.6656 3.80678 5.89801 3.99751 6.06153 4.24223C6.22502 4.48695 6.31231 4.77465 6.31231 5.06897C6.31231 5.26439 6.27382 5.45789 6.19904 5.63844C6.12427 5.81898 6.01464 5.98303 5.87646 6.12121C5.73828 6.25939 5.57423 6.36902 5.39369 6.4438C5.21314 6.51857 5.01964 6.55706 4.82422 6.55706Z" fill="black"/>
</svg>
