<svg width="112" height="32" viewBox="0 0 112 32" fill="none" xmlns="http://www.w3.org/2000/svg">
<g style="mix-blend-mode:luminosity">
<g opacity="0.5">
<path d="M39.7824 19.8167H43.344V21.9756H37.0635V10.4943H39.7824V19.8167Z" fill="black"/>
<path d="M45.8489 11.9009C45.3719 11.9009 44.9797 11.7592 44.6723 11.4757C44.3755 11.1813 44.2271 10.8215 44.2271 10.3963C44.2271 9.96012 44.3755 9.60035 44.6723 9.31686C44.9797 9.02242 45.3719 8.87524 45.8489 8.87524C46.3153 8.87524 46.6969 9.02242 46.9937 9.31686C47.3011 9.60035 47.4548 9.96012 47.4548 10.3963C47.4548 10.8215 47.3011 11.1813 46.9937 11.4757C46.6969 11.7592 46.3153 11.9009 45.8489 11.9009ZM47.2004 12.8496V21.9757H44.4815V12.8496H47.2004Z" fill="black"/>
<path d="M52.3826 12.718C53.008 12.718 53.5539 12.8489 54.0203 13.1105C54.4973 13.3722 54.863 13.7157 55.1174 14.1409V12.8489H57.8363V21.9587C57.8363 22.7982 57.672 23.556 57.3434 24.2321C57.0254 24.9189 56.5325 25.4641 55.8647 25.8676C55.2075 26.271 54.386 26.4727 53.4002 26.4727C52.0857 26.4727 51.0205 26.1511 50.2043 25.5077C49.3881 24.8753 48.9217 24.014 48.8051 22.9236H51.4922C51.577 23.2726 51.7784 23.5451 52.0964 23.7414C52.4144 23.9486 52.8066 24.0521 53.273 24.0521C53.8348 24.0521 54.28 23.8832 54.6086 23.5451C54.9478 23.218 55.1174 22.6892 55.1174 21.9587V20.6666C54.8524 21.0919 54.4867 21.4408 54.0203 21.7133C53.5539 21.975 53.008 22.1058 52.3826 22.1058C51.6511 22.1058 50.9886 21.9151 50.3951 21.5334C49.8015 21.1409 49.3298 20.5903 48.9799 19.8815C48.6408 19.1619 48.4712 18.3333 48.4712 17.3956C48.4712 16.4579 48.6408 15.6347 48.9799 14.9259C49.3298 14.2172 49.8015 13.672 50.3951 13.2904C50.9886 12.9088 51.6511 12.718 52.3826 12.718ZM55.1174 17.4119C55.1174 16.7141 54.9266 16.1635 54.545 15.76C54.174 15.3567 53.7182 15.1549 53.1775 15.1549C52.637 15.1549 52.1759 15.3567 51.7943 15.76C51.4232 16.1526 51.2378 16.6977 51.2378 17.3956C51.2378 18.0934 51.4232 18.6495 51.7943 19.0638C52.1759 19.4672 52.637 19.6689 53.1775 19.6689C53.7182 19.6689 54.174 19.4672 54.545 19.0638C54.9266 18.6604 55.1174 18.1097 55.1174 17.4119Z" fill="black"/>
<path d="M65.0981 12.7503C66.1156 12.7503 66.9319 13.0992 67.5467 13.7971C68.1615 14.484 68.4689 15.4326 68.4689 16.6429V21.9747H65.7659V17.019C65.7659 16.4084 65.6122 15.9341 65.3048 15.5962C64.9973 15.2581 64.5839 15.0891 64.0646 15.0891C63.5452 15.0891 63.1318 15.2581 62.8243 15.5962C62.517 15.9341 62.3632 16.4084 62.3632 17.019V21.9747H59.6443V9.87183H62.3632V14.0751C62.6388 13.6717 63.0151 13.3501 63.4921 13.1102C63.9692 12.8703 64.5045 12.7503 65.0981 12.7503Z" fill="black"/>
<path d="M75.1441 19.6032V21.9747H73.7609C72.775 21.9747 72.0066 21.7294 71.4553 21.2388C70.9042 20.7372 70.6286 19.9249 70.6286 18.8019V15.171H69.5474V12.8486H70.6286V10.6243H73.3475V12.8486H75.1283V15.171H73.3475V18.8345C73.3475 19.1072 73.411 19.3034 73.5383 19.4233C73.6654 19.5433 73.8774 19.6032 74.1743 19.6032H75.1441Z" fill="black"/>
<path d="M79.2189 14.1405C79.4733 13.7153 79.839 13.3719 80.316 13.1102C80.793 12.8485 81.3389 12.7177 81.9537 12.7177C82.685 12.7177 83.3477 12.9085 83.9412 13.29C84.5347 13.6717 85.0016 14.2169 85.3403 14.9256C85.69 15.6343 85.8653 16.4575 85.8653 17.3952C85.8653 18.3329 85.69 19.1616 85.3403 19.8812C85.0016 20.59 84.5347 21.1405 83.9412 21.533C83.3477 21.9147 82.685 22.1055 81.9537 22.1055C81.3283 22.1055 80.7824 21.9801 80.316 21.7293C79.8496 21.4676 79.4839 21.1242 79.2189 20.699V21.9747H76.5V9.87183H79.2189V14.1405ZM83.0989 17.3952C83.0989 16.6974 82.9073 16.1522 82.5259 15.7597C82.1551 15.3563 81.694 15.1546 81.1428 15.1546C80.6022 15.1546 80.1411 15.3563 79.7595 15.7597C79.3885 16.1632 79.203 16.7137 79.203 17.4115C79.203 18.1094 79.3885 18.66 79.7595 19.0635C80.1411 19.4669 80.6022 19.6686 81.1428 19.6686C81.6834 19.6686 82.1445 19.4669 82.5259 19.0635C82.9073 18.6491 83.0989 18.093 83.0989 17.3952Z" fill="black"/>
<path d="M91.1701 22.1058C90.3013 22.1058 89.5171 21.9151 88.8176 21.5334C88.1283 21.1518 87.5827 20.6066 87.1799 19.8979C86.7874 19.1892 86.5916 18.3605 86.5916 17.4119C86.5916 16.4742 86.7925 15.651 87.1953 14.9423C87.5981 14.2227 88.1497 13.672 88.8492 13.2904C89.5487 12.9088 90.3329 12.718 91.2026 12.718C92.0715 12.718 92.8557 12.9088 93.5552 13.2904C94.2548 13.672 94.8063 14.2227 95.2091 14.9423C95.6119 15.651 95.8129 16.4742 95.8129 17.4119C95.8129 18.3496 95.6068 19.1782 95.1929 19.8979C94.7901 20.6066 94.2342 21.1518 93.5236 21.5334C92.8241 21.9151 92.0399 22.1058 91.1701 22.1058ZM91.1701 19.6853C91.6901 19.6853 92.1297 19.489 92.4905 19.0965C92.8608 18.704 93.0464 18.1425 93.0464 17.4119C93.0464 16.6814 92.8668 16.1199 92.5059 15.7274C92.1562 15.3348 91.7217 15.1386 91.2026 15.1386C90.6724 15.1386 90.232 15.3348 89.8823 15.7274C89.5325 16.1089 89.358 16.6705 89.358 17.4119C89.358 18.1425 89.5274 18.704 89.8669 19.0965C90.2166 19.489 90.6511 19.6853 91.1701 19.6853Z" fill="black"/>
<path d="M102.344 21.9748L100.642 19.4397L99.2118 21.9748H96.27L99.1964 17.3136L96.1904 12.8486H99.2434L100.945 15.3673L102.376 12.8486H105.318L102.344 17.4444L105.397 21.9748H102.344Z" fill="black"/>
</g>
<path fill-rule="evenodd" clip-rule="evenodd" d="M22.435 12.4563C21.5547 11.8639 20.5198 11.5477 19.461 11.5477V6.15637C21.5785 6.15637 23.6484 6.78876 25.409 7.97357C27.1697 9.15837 28.5419 10.8424 29.3522 12.8126C30.1625 14.7829 30.3745 16.9509 29.9614 19.0426C29.5483 21.1342 28.5287 23.0555 27.0314 24.5634C25.5341 26.0714 23.6265 27.0984 21.5497 27.5144C19.4729 27.9304 17.3202 27.7169 15.3639 26.9008C13.4077 26.0847 11.7356 24.7027 10.5592 22.9295C9.38279 21.1563 8.75488 19.0716 8.75488 16.939H14.108C14.108 18.0053 14.4219 19.0476 15.0101 19.9342C15.5983 20.8208 16.4343 21.5118 17.4125 21.9199C18.3906 22.328 19.467 22.4347 20.5053 22.2267C21.5437 22.0187 22.4975 21.5052 23.2462 20.7512C23.9949 19.9972 24.5047 19.0366 24.7112 17.9908C24.9178 16.945 24.8118 15.8609 24.4066 14.8758C24.0014 13.8907 23.3153 13.0487 22.435 12.4563Z" fill="#007DFC"/>
<path fill-rule="evenodd" clip-rule="evenodd" d="M14.1079 6.15637C14.1079 6.86437 13.9695 7.56543 13.7005 8.21953C13.4315 8.87364 13.0372 9.46797 12.5401 9.9686C12.043 10.4692 11.4529 10.8664 10.8034 11.1373C10.1539 11.4082 9.45786 11.5477 8.75488 11.5477L8.75488 16.939C10.1608 16.939 11.553 16.6601 12.8519 16.1182C14.1509 15.5763 15.3311 14.7821 16.3252 13.7808C17.3194 12.7796 18.108 11.5909 18.6461 10.2827C19.1841 8.97449 19.461 7.57236 19.461 6.15637L14.1079 6.15637Z" fill="#007DFC"/>
</g>
</svg>
