<svg width="42" height="42" viewBox="0 0 42 42" fill="none" xmlns="http://www.w3.org/2000/svg">
<path d="M5.25707 20.115V25.2473C5.25666 26.4409 5.7328 27.5857 6.5807 28.4298C7.42859 29.274 8.57877 29.7483 9.77812 29.7483H32.3886C33.5877 29.7483 34.7377 29.2743 35.5855 28.4305C36.4334 27.5868 36.9097 26.4423 36.9097 25.249V9.74754C36.9097 8.55425 36.4334 7.40982 35.5855 6.56604C34.7377 5.72226 33.5877 5.24829 32.3886 5.24829H19.417" stroke="black" stroke-linecap="round" stroke-linejoin="round"/>
<path fill-rule="evenodd" clip-rule="evenodd" d="M11.4049 18.7366L16.6804 15.7366C17.2283 15.425 17.5664 14.8452 17.5664 14.2172V8.24829C17.5664 7.62029 17.2283 7.04043 16.6804 6.72886L11.4049 3.72887C10.8643 3.42143 10.2007 3.42143 9.66004 3.72887L4.38461 6.72886C3.83671 7.04043 3.49858 7.62029 3.49858 8.24829V14.2172C3.49858 14.8452 3.83671 15.425 4.38461 15.7366L9.66004 18.7366C10.2007 19.044 10.8643 19.044 11.4049 18.7366Z" stroke="black" stroke-linecap="round" stroke-linejoin="round"/>
<path d="M17.3248 7.37024L10.5324 11.2329" stroke="black" stroke-linecap="round" stroke-linejoin="round"/>
<path d="M3.7378 7.3689L10.5325 11.2328" stroke="black" stroke-linecap="round" stroke-linejoin="round"/>
<path d="M10.5326 11.2329V18.9648" stroke="black" stroke-linecap="round" stroke-linejoin="round"/>
<path d="M24.4188 29.7483V36.733" stroke="black" stroke-linecap="round" stroke-linejoin="round"/>
<path d="M17.4189 29.7483L17.4189 36.733" stroke="black" stroke-linecap="round" stroke-linejoin="round"/>
<path d="M14.1692 36.7485H27.6687" stroke="black" stroke-linecap="round" stroke-linejoin="round"/>
</svg>
