<svg width="120" height="32" viewBox="0 0 120 32" fill="none" xmlns="http://www.w3.org/2000/svg">
<g style="mix-blend-mode:luminosity">
<g opacity="0.7">
<path d="M40.23 23.0343C41.7505 23.0343 43.0006 22.2578 43.3892 21.0929V22.8993H45.6361V18.3412C45.6361 17.3114 44.8252 16.4335 43.7271 16.4335H40.5172V18.3412H42.7979C43.0851 18.3412 43.2709 18.5269 43.2709 18.8139C43.2709 19.9112 41.8181 20.9747 40.3483 20.9747C38.3886 20.9747 36.8343 19.4385 36.8343 16.9906C36.8343 14.5428 38.3886 13.1247 40.399 13.1247C41.9194 13.1247 42.9669 13.9519 43.1527 15.218H45.6699C45.5179 12.6858 43.3892 10.947 40.4159 10.947C37.2904 10.947 34.4185 12.9559 34.4185 16.9906C34.4185 21.0254 37.206 23.0343 40.23 23.0343Z" fill="#4C6379"/>
<path d="M46.6007 22.8993H48.9489V10.6937H46.6007V22.8993Z" fill="#4C6379"/>
<path d="M54.0144 23.0343C56.633 23.0343 58.5082 21.1773 58.5082 18.6451C58.5082 16.1128 56.633 14.2558 54.0144 14.2558C51.3958 14.2558 49.5206 16.1128 49.5206 18.6451C49.5206 21.1773 51.3958 23.0343 54.0144 23.0343ZM54.0144 21.0085C52.7473 21.0085 51.8857 20.0462 51.8857 18.6451C51.8857 17.227 52.7473 16.2647 54.0144 16.2647C55.2814 16.2647 56.143 17.227 56.143 18.6451C56.143 20.0462 55.2814 21.0085 54.0144 21.0085Z" fill="#4C6379"/>
<path d="M63.7628 23.0343C66.28 23.0343 67.7836 21.2955 67.7836 18.6451C67.7836 15.9946 66.28 14.2558 63.7966 14.2558C62.7323 14.2558 61.9044 14.6609 61.4314 15.2856V10.6937H59.0831V22.8993H61.4314V21.9708C61.9044 22.6292 62.7829 23.0343 63.7628 23.0343ZM63.3911 21.0085C62.1241 21.0085 61.2963 20.0631 61.2963 18.6451C61.2963 17.2101 62.1241 16.2647 63.3911 16.2647C64.6244 16.2647 65.4691 17.2101 65.4691 18.6451C65.4691 20.0631 64.6244 21.0085 63.3911 21.0085Z" fill="#4C6379"/>
<path d="M71.7145 14.2558C69.3831 14.2558 67.9978 15.6232 67.8964 17.3283H69.9913C70.0251 16.6192 70.5488 15.9777 71.5793 15.9777C72.5423 15.9777 73.0998 16.4673 73.0998 17.1763C73.0998 17.5309 72.8802 17.801 72.4578 17.801H71.0218C69.1635 17.801 67.9133 18.8139 67.9133 20.4852C67.9133 21.937 69.0452 23.0343 70.7008 23.0343C71.8665 23.0343 72.8126 22.511 73.0998 21.7175V22.8993H75.4312V17.4296C75.4312 15.505 73.86 14.2558 71.7145 14.2558ZM71.2921 21.3293C70.6333 21.3293 70.1602 20.941 70.1602 20.3839C70.1602 19.7255 70.6671 19.2866 71.3766 19.2866H73.0998V19.4047C73.0998 20.4852 72.4409 21.3293 71.2921 21.3293Z" fill="#4C6379"/>
<path d="M76.3336 22.8993H78.6818V10.6937H76.3336V22.8993Z" fill="#4C6379"/>
<path d="M79.9292 22.8993H84.7609C87.2613 22.8993 88.9844 21.6162 88.9844 19.371C88.9844 17.8178 88.0722 16.8725 86.9909 16.4504C87.6836 16.079 88.3763 15.2349 88.3763 14.1207C88.3763 12.1456 86.7713 11.082 84.6258 11.082H79.9292V22.8993ZM82.4295 15.5894V13.0909H84.3893C85.5212 13.0909 86.028 13.5467 86.028 14.3402C86.028 15.1336 85.5212 15.5894 84.4399 15.5894H82.4295ZM82.4295 20.7046V17.7334H84.5413C85.9435 17.7334 86.5686 18.2737 86.5686 19.2359C86.5686 20.1982 85.9435 20.7046 84.5413 20.7046H82.4295Z" fill="#4C6379"/>
<path d="M93.0696 14.2558C90.7383 14.2558 89.3529 15.6232 89.2516 17.3283H91.3464C91.3802 16.6192 91.904 15.9777 92.9345 15.9777C93.8975 15.9777 94.455 16.4673 94.455 17.1763C94.455 17.5309 94.2353 17.801 93.813 17.801H92.377C90.5186 17.801 89.2685 18.8139 89.2685 20.4852C89.2685 21.937 90.4004 23.0343 92.056 23.0343C93.2217 23.0343 94.1678 22.511 94.455 21.7175V22.8993H96.7863V17.4296C96.7863 15.505 95.2152 14.2558 93.0696 14.2558ZM92.6473 21.3293C91.9884 21.3293 91.5154 20.941 91.5154 20.3839C91.5154 19.7255 92.0222 19.2866 92.7318 19.2866H94.455V19.4047C94.455 20.4852 93.7961 21.3293 92.6473 21.3293Z" fill="#4C6379"/>
<path d="M97.5536 22.8993H99.9187V18.2399C99.9187 17.1426 100.645 16.3491 101.676 16.3491C102.656 16.3491 103.314 17.0919 103.314 18.1217V22.8993H105.68V17.5984C105.68 15.6401 104.429 14.2558 102.504 14.2558C101.338 14.2558 100.392 14.7454 99.9187 15.5726V14.3908H97.5536V22.8993Z" fill="#4C6379"/>
<path d="M112.42 22.8993H115.259L111.593 17.7334L114.988 14.3908H112.015L109.059 17.2945V10.6937H106.693V22.8993H109.059V20.2319L110.005 19.3034L112.42 22.8993Z" fill="#4C6379"/>
</g>
<path d="M16.5852 6.31287C22.1193 6.31287 26.6053 10.8288 26.6053 16.3998V23.4607C26.6053 24.2633 26.2886 25.033 25.7249 25.6005C25.1611 26.168 24.3965 26.4868 23.5993 26.4868H17.0862V22.0616C17.0862 21.0519 17.1473 20.0059 17.6733 19.1465C18.05 18.5306 18.5538 18.0035 19.1506 17.6008C19.7474 17.1982 20.4233 16.9295 21.1323 16.8129L21.3242 16.7816C21.4033 16.7544 21.472 16.703 21.5206 16.6345C21.5692 16.566 21.5954 16.484 21.5954 16.3998C21.5954 16.3157 21.5692 16.2336 21.5206 16.1652C21.472 16.0967 21.4033 16.0453 21.3242 16.018L21.1323 15.9868C20.0963 15.8164 19.1396 15.3228 18.3974 14.5755C17.6551 13.8283 17.1647 12.8653 16.9955 11.8224L16.9644 11.6292C16.9374 11.5496 16.8863 11.4804 16.8183 11.4315C16.7503 11.3825 16.6688 11.3562 16.5852 11.3562C16.5016 11.3562 16.42 11.3825 16.352 11.4315C16.284 11.4804 16.2329 11.5496 16.2059 11.6292L16.1748 11.8224C16.0591 12.5362 15.7921 13.2165 15.3922 13.8173C14.9922 14.4181 14.4685 14.9253 13.8567 15.3044C13.003 15.8339 11.9639 15.8955 10.9608 15.8955H6.57703C6.83905 10.559 11.2194 6.31287 16.5852 6.31287Z" fill="#F58A5C"/>
<path d="M6.56482 16.9044H10.9607C11.9637 16.9044 13.0028 16.9659 13.8565 17.4955C14.5238 17.9095 15.0856 18.475 15.4968 19.1467C16.0228 20.0062 16.084 21.0522 16.084 22.0619V26.487H9.57087C8.77361 26.487 8.00901 26.1682 7.44527 25.6007C6.88153 25.0332 6.56482 24.2635 6.56482 23.4609V16.9044ZM26.6051 7.32181C26.6051 7.58933 26.4996 7.84589 26.3117 8.03506C26.1237 8.22423 25.8689 8.3305 25.6031 8.3305C25.3374 8.3305 25.0825 8.22423 24.8946 8.03506C24.7067 7.84589 24.6011 7.58933 24.6011 7.32181C24.6011 7.05428 24.7067 6.79772 24.8946 6.60855C25.0825 6.41938 25.3374 6.31311 25.6031 6.31311C25.8689 6.31311 26.1237 6.41938 26.3117 6.60855C26.4996 6.79772 26.6051 7.05428 26.6051 7.32181Z" fill="#F58A5C"/>
</g>
</svg>
