<svg width="112" height="32" viewBox="0 0 112 32" fill="none" xmlns="http://www.w3.org/2000/svg">
<g style="mix-blend-mode:luminosity">
<g opacity="0.7">
<path d="M39.0738 20.0419V8.51379H37.1907V20.0419H39.0738Z" fill="#4C6379"/>
<path d="M40.2263 16.199C40.2263 18.5542 41.8007 20.2277 44.1933 20.2277C46.5858 20.2277 48.1602 18.5542 48.1602 16.199C48.1602 13.8438 46.5858 12.1704 44.1933 12.1704C41.8007 12.1704 40.2263 13.8438 40.2263 16.199ZM42.1249 16.199C42.1249 14.82 42.943 13.8593 44.1933 13.8593C45.4435 13.8593 46.2616 14.82 46.2616 16.199C46.2616 17.5626 45.4435 18.5387 44.1933 18.5387C42.943 18.5387 42.1249 17.5626 42.1249 16.199Z" fill="#4C6379"/>
<path d="M48.7936 16.0438C48.7936 18.2751 50.2291 19.8865 52.3746 19.8865C53.486 19.8865 54.443 19.4372 54.9215 18.6934V19.995C54.9215 21.2501 54.1343 22.0868 52.8223 22.0868C51.6492 22.0868 50.8465 21.5135 50.7385 20.5063H48.8399C49.0869 22.5051 50.615 23.8067 52.7142 23.8067C55.1839 23.8067 56.7583 22.1797 56.7583 19.6541V12.3871H55.0913L54.9832 13.4252C54.5202 12.6195 53.5632 12.1392 52.4364 12.1392C50.26 12.1392 48.7936 13.7971 48.7936 16.0438ZM50.7076 15.9973C50.7076 14.7268 51.5102 13.7971 52.6988 13.7971C53.9954 13.7971 54.8598 14.7423 54.8598 15.9973C54.8598 17.2679 53.9954 18.2441 52.6988 18.2441C51.5257 18.2441 50.7076 17.2834 50.7076 15.9973Z" fill="#4C6379"/>
<path d="M57.6903 16.199C57.6903 18.5542 59.2647 20.2277 61.6572 20.2277C64.0498 20.2277 65.6242 18.5542 65.6242 16.199C65.6242 13.8438 64.0498 12.1704 61.6572 12.1704C59.2647 12.1704 57.6903 13.8438 57.6903 16.199ZM59.5889 16.199C59.5889 14.82 60.407 13.8593 61.6572 13.8593C62.9075 13.8593 63.7256 14.82 63.7256 16.199C63.7256 17.5626 62.9075 18.5387 61.6572 18.5387C60.407 18.5387 59.5889 17.5626 59.5889 16.199Z" fill="#4C6379"/>
<path d="M67.6621 10.823C68.2796 10.823 68.7889 10.3272 68.7889 9.69191C68.7889 9.07213 68.2796 8.57629 67.6621 8.57629C67.0293 8.57629 66.5508 9.07213 66.5508 9.69191C66.5508 10.3272 67.0293 10.823 67.6621 10.823ZM66.7206 20.0424H68.6037V12.388H66.7206V20.0424Z" fill="#4C6379"/>
<path d="M70.2537 23.5903H72.0906V18.9883C72.5691 19.7786 73.6033 20.2434 74.7455 20.2434C76.9991 20.2434 78.342 18.508 78.3112 16.1218C78.2649 13.7201 76.8911 12.1552 74.7301 12.1552C73.5724 12.1552 72.5228 12.6665 72.0598 13.5497L71.9517 12.3876H70.2537V23.5903ZM72.1678 16.2148C72.1678 14.8357 73.0013 13.8751 74.3133 13.8751C75.6254 13.8751 76.4126 14.8512 76.4126 16.2148C76.4126 17.5783 75.6254 18.539 74.3133 18.539C73.0013 18.539 72.1678 17.5938 72.1678 16.2148Z" fill="#4C6379"/>
<path d="M78.7888 17.7488C78.8506 19.2672 80.0237 20.2434 81.8451 20.2434C83.6356 20.2434 84.855 19.2827 84.855 17.7952C84.855 16.6951 84.1758 15.9514 82.9256 15.6415L81.5827 15.3161C81.0115 15.1611 80.6257 14.9597 80.6257 14.4639C80.6257 13.937 81.0424 13.5652 81.7216 13.5652C82.4316 13.5652 82.8947 13.968 82.8947 14.6343H84.608C84.5463 13.1158 83.4195 12.1552 81.7679 12.1552C80.1317 12.1552 78.9123 13.1158 78.9123 14.5723C78.9123 15.564 79.4834 16.3852 80.9498 16.7726L82.2773 17.1135C82.7712 17.2529 83.0799 17.4853 83.0799 17.9192C83.0799 18.5235 82.5088 18.8024 81.8142 18.8024C80.9807 18.8024 80.5022 18.415 80.5022 17.7488H78.7888Z" fill="#4C6379"/>
<path d="M88.7616 20.243C89.7958 20.243 90.7837 19.7627 91.2313 19.0499L91.3548 20.0416H93.1144V12.3872H91.2313V16.4003C91.2313 17.7794 90.7065 18.5541 89.4716 18.5541C88.5146 18.5541 87.8509 18.0893 87.8509 16.5088V12.3872H85.9678V17.1751C85.9678 19.0035 86.9556 20.243 88.7616 20.243Z" fill="#4C6379"/>
<path d="M96.6591 20.042V15.6415C96.6591 14.4019 97.3846 13.8131 98.2799 13.8131C99.1751 13.8131 99.7617 14.3864 99.7617 15.471V20.042H101.599V15.657C101.599 14.4019 102.309 13.8131 103.204 13.8131C104.115 13.8131 104.701 14.3864 104.701 15.471V20.042H106.522V15.0372C106.522 13.2708 105.55 12.1552 103.698 12.1552C102.54 12.1552 101.629 12.713 101.259 13.6117C100.842 12.713 100.009 12.1552 98.7429 12.1552C97.8477 12.1552 97.045 12.5735 96.5974 13.2553L96.5048 12.3876H94.776V20.042H96.6591Z" fill="#4C6379"/>
<path d="M92.1447 26.8825C92.4252 26.8825 92.6688 26.6454 92.6688 26.3638C92.6688 26.0748 92.4252 25.8376 92.1447 25.8376C91.8568 25.8376 91.6132 26.0748 91.6132 26.3638C91.6132 26.6454 91.8568 26.8825 92.1447 26.8825Z" fill="#4C6379"/>
<path d="M93.2103 24.971C93.2103 26.1048 93.9043 26.8681 94.9156 26.8681C95.7867 26.8681 96.4511 26.3419 96.5914 25.5564H95.927C95.8015 25.9936 95.4176 26.253 94.9599 26.253C94.3103 26.253 93.8969 25.7491 93.8969 24.9636C93.8969 24.1632 94.3324 23.6741 94.9747 23.6741C95.4176 23.6741 95.8015 23.9113 95.9196 24.3781H96.584C96.4659 23.5852 95.8458 23.0516 94.9821 23.0516C93.9338 23.0516 93.2103 23.8297 93.2103 24.971Z" fill="#4C6379"/>
<path d="M96.8531 24.9629C96.8531 26.0522 97.5914 26.8674 98.6987 26.8674C99.806 26.8674 100.544 26.0522 100.544 24.9629C100.544 23.8735 99.806 23.0583 98.6987 23.0583C97.5914 23.0583 96.8531 23.8735 96.8531 24.9629ZM97.5545 24.9629C97.5545 24.2218 98.0048 23.6808 98.6987 23.6808C99.3926 23.6808 99.843 24.2218 99.843 24.9629C99.843 25.7039 99.3926 26.2449 98.6987 26.2449C98.0048 26.2449 97.5545 25.7039 97.5545 24.9629Z" fill="#4C6379"/>
<path d="M101.831 26.7858V24.6071C101.831 24.0365 102.185 23.666 102.702 23.666C103.196 23.666 103.507 23.9847 103.507 24.5553V26.7858H104.186V24.6146C104.186 24.0365 104.533 23.666 105.057 23.666C105.544 23.666 105.854 23.9847 105.854 24.5553V26.7858H106.526V24.4071C106.526 23.5697 106.039 23.0583 105.212 23.0583C104.651 23.0583 104.215 23.3325 104.038 23.7772C103.853 23.3325 103.447 23.0583 102.857 23.0583C102.407 23.0583 102.008 23.2658 101.809 23.6215L101.757 23.1621H101.137V26.7858H101.831Z" fill="#4C6379"/>
</g>
<path fill-rule="evenodd" clip-rule="evenodd" d="M5.89478 16.2932L5.89607 16.1582L5.89874 16.0231L5.9028 15.888L5.90822 15.753L5.91504 15.6179L5.92324 15.4828L5.93282 15.3478L5.94378 15.2128L5.95613 15.0779L5.96986 14.9429L5.98497 14.8082L6.00146 14.6734L6.01934 14.5388L6.0386 14.4044L6.05924 14.27L6.08126 14.1359L6.10466 14.0018L6.12943 13.8681L6.15558 13.7344L6.18311 13.6009L6.21202 13.4677L6.24228 13.3347L6.27393 13.202L6.30694 13.0695L6.34132 12.9373L6.37706 12.8053L6.41416 12.6737L6.45262 12.5424L6.49244 12.4114L6.53361 12.2808L6.57613 12.1505L6.62 12.0205L6.66521 11.891L6.71176 11.7618L6.75965 11.6331L6.80887 11.5048L6.85942 11.3769L6.9113 11.2494L6.9645 11.1225L7.01901 10.996L7.07484 10.87L7.13198 10.7445L7.19042 10.6195L7.25017 10.495L7.3112 10.371L7.37353 10.2477L7.43714 10.1249L7.50203 10.0026L7.56819 9.88099L7.63561 9.75993L7.70431 9.63947L7.77425 9.51969L7.84545 9.40052L7.91789 9.28202L7.99157 9.16419L8.06648 9.04704L8.14262 8.93062L8.21998 8.81482L8.29854 8.69982L8.37832 8.5855L8.45929 8.47191L8.54144 8.35914L8.62479 8.24704L8.70931 8.13581L8.795 8.02533L8.88185 7.91561L8.96986 7.80674L9.05901 7.6987L9.14929 7.59149L9.24071 7.48512L9.33325 7.37961L9.4269 7.27498L9.52165 7.17123L9.6175 7.06837L9.71444 6.96642L9.81246 6.86538L9.91154 6.76526L10.0117 6.66608L10.1129 6.56785L10.2151 6.47058L10.3184 6.37428L10.4227 6.27896L10.528 6.18463L10.6343 6.09129L10.7416 5.99897L10.8499 5.90767L10.9591 5.8174L11.0694 5.72817L11.1805 5.63999L11.2927 5.55287L11.4057 5.46683L11.5197 5.38186L11.6346 5.29798L11.7504 5.21521L11.867 5.13354L11.9846 5.05299L12.103 4.97355L12.2222 4.89526L12.3423 4.81811L12.4633 4.74212L12.5851 4.66729L12.7077 4.59362L12.831 4.52114L12.9552 4.44984L13.0802 4.37974L13.2059 4.31084L13.3323 4.24315L13.4595 4.17668L13.5874 4.11144L13.716 4.04743L13.8454 3.98466L13.9754 3.92314L14.1061 3.86288L14.2375 3.80389L14.3695 3.74616L14.5022 3.68971L14.6355 3.63455L14.7694 3.58068L14.9038 3.52809L15.0389 3.47683L15.1746 3.42686L15.3108 3.37822L15.4476 3.33089L15.5849 3.28489L15.7227 3.24024L15.861 3.19691L15.9998 3.15493L16.1392 3.11431L16.2789 3.07504L16.4191 3.03713L16.5598 3.00058L16.7009 2.96541L16.8423 2.93161L16.9843 2.89919L17.1266 2.86816L17.2692 2.83851L17.4122 2.81026L17.5555 2.7834L17.6992 2.75795L17.8432 2.73389L17.9875 2.71125L18.1321 2.69002L18.2769 2.6702L18.422 2.65181L18.5674 2.63483L18.7129 2.61927L18.8587 2.60515L19.0047 2.59245L19.1508 2.58118L19.2971 2.57135L20.084 2.52625L20.1288 6.33166L20.1546 6.33137L20.2632 6.33121L20.3719 6.33213L20.4805 6.33412L20.5893 6.33718L20.698 6.34132L20.8068 6.34652L20.9156 6.3528L21.0244 6.36017L21.1331 6.3686L21.2419 6.37811L21.3505 6.3887L21.4592 6.40037L21.5677 6.41311L21.6762 6.42692L21.7846 6.44182L21.8929 6.45778L22.0011 6.47484L22.1092 6.49296L22.2171 6.51215L22.325 6.53242L22.4326 6.55376L22.5401 6.57618L22.6475 6.59967L22.7546 6.62423L22.8615 6.64985L22.9683 6.67654L23.0748 6.7043L23.181 6.73312L23.287 6.763L23.3929 6.79395L23.4984 6.82595L23.6036 6.859L23.7086 6.89312L23.8133 6.92829L23.9176 6.9645L24.0216 7.00176L24.1254 7.04006L24.2287 7.07941L24.3318 7.11979L24.4344 7.16121L24.5367 7.20367L24.6386 7.24715L24.7401 7.29166L24.8413 7.33719L24.9419 7.38374L25.0422 7.43131L25.1421 7.47989L25.2414 7.52948L25.3404 7.58007L25.4388 7.63166L25.5368 7.68425L25.6343 7.73783L25.7313 7.7924L25.8278 7.84795L25.9238 7.90448L26.0192 7.962L26.1141 8.02048L26.2084 8.0799L26.3022 8.14032L26.3954 8.20163L26.488 8.26395L26.5801 8.3272L26.6715 8.39134L26.7624 8.45649L26.8526 8.52251L26.9421 8.58947L27.0311 8.65738L27.1193 8.72616L27.207 8.79589L27.2939 8.86642L27.3802 8.9379L27.4658 9.01032L27.5507 9.08355L27.6349 9.15766L27.7184 9.23264L27.8011 9.30849L27.8831 9.38523L27.9643 9.46277L28.0449 9.54112L28.1246 9.62034L28.2036 9.70038L28.2818 9.78128L28.3592 9.86294L28.4358 9.94539L28.5116 10.0287L28.5866 10.1127L28.6608 10.1976L28.7341 10.2832L28.8066 10.3695L28.8783 10.4567L28.9491 10.5446L29.019 10.6332L29.0881 10.7225L29.1562 10.8126L29.2235 10.9034L29.2899 10.9949L29.3554 11.0871L29.42 11.18L29.4837 11.2735L29.5464 11.3677L29.6082 11.4627L29.6691 11.5583L29.729 11.6545L29.788 11.7513L29.8459 11.8488L29.903 11.9468L29.959 12.0455L30.0141 12.1448L30.0682 12.2447L30.1213 12.3452L30.1734 12.4462L30.2244 12.5478L30.2745 12.65L30.3236 12.7527L30.3716 12.8559L30.4186 12.9597L30.4646 13.0639L30.5095 13.1687L30.5533 13.274L30.5961 13.3797L30.6379 13.4859L30.6785 13.5926L30.7181 13.6998L30.7566 13.8073L30.7941 13.9153L30.8305 14.0237L30.8658 14.1326L30.8999 14.2418L30.933 14.3514L30.965 14.4614L30.9958 14.5718L31.0256 14.6825L31.0542 14.7936L31.0817 14.905L31.1081 15.0168L31.1333 15.1288L31.1574 15.2412L31.1804 15.3537L31.2023 15.4667L31.2229 15.5799L31.2425 15.6933L31.2609 15.807L31.2782 15.9209L31.2943 16.0351L31.3092 16.1494L31.3229 16.264L31.3355 16.3787L31.3469 16.4937L31.3572 16.6087L31.3663 16.724L31.3743 16.8394L31.381 16.9549L31.3865 17.0705L31.391 17.1864L31.3941 17.3022L31.3962 17.4181L31.397 17.5341L31.3967 17.6502L31.3951 17.7663L31.3924 17.8825L31.3885 17.9987L31.3834 18.1149L31.3771 18.2311L31.3696 18.3473L31.361 18.4635L31.3511 18.5797L31.34 18.6958L31.3278 18.8119L31.3143 18.9278L31.2997 19.0438L31.2839 19.1596L31.2669 19.2753L31.2487 19.3909L31.2293 19.5064L31.2087 19.6217L31.187 19.7369L31.164 19.852L31.1398 19.9668L31.1145 20.0815L31.088 20.196L31.0603 20.3103L31.0314 20.4243L31.0013 20.5381L30.9701 20.6517L30.9377 20.765L30.9041 20.8781L30.8694 20.9909L30.8334 21.1034L30.7964 21.2156L30.7581 21.3274L30.7187 21.439L30.6781 21.5502L30.6364 21.661L30.5935 21.7715L30.5495 21.8817L30.5043 21.9914L30.458 22.1007L30.4105 22.2097L30.362 22.3182L30.3122 22.4263L30.2614 22.534L30.2094 22.6412L30.1563 22.748L30.1021 22.8542L30.0467 22.96L29.9904 23.0653L29.9328 23.1701L29.8742 23.2743L29.8145 23.3781L29.7537 23.4813L29.6918 23.5839L29.6288 23.686L29.5647 23.7874L29.4996 23.8884L29.4335 23.9887L29.3663 24.0884L29.298 24.1875L29.2287 24.286L29.1584 24.3838L29.087 24.481L29.0146 24.5775L28.9411 24.6734L28.8667 24.7685L28.7913 24.8631L28.7148 24.9568L28.6374 25.0499L28.5589 25.1422L28.4796 25.2338L28.3992 25.3247L28.3178 25.4149L28.2355 25.5043L28.1523 25.5929L28.0681 25.6807L27.983 25.7677L27.8969 25.8539L27.8099 25.9393L27.7221 26.0239L27.6333 26.1078L27.5436 26.1907L27.453 26.2728L27.3616 26.354L27.2693 26.4344L27.1761 26.5139L27.082 26.5925L26.9871 26.6702L26.8914 26.7471L26.7949 26.823L26.6975 26.898L26.5993 26.972L26.5003 27.0452L26.4006 27.1174L26.3 27.1886L26.1986 27.2589L26.0966 27.3283L25.9938 27.3966L25.8901 27.4639L25.7858 27.5304L25.6808 27.5957L25.5751 27.6601L25.4685 27.7234L25.3614 27.7858L25.2536 27.8471L25.145 27.9074L25.0359 27.9666L24.926 28.0248L24.8156 28.0819L24.7044 28.138L24.5927 28.193L24.4803 28.2469L24.3674 28.2998L24.2538 28.3515L24.1397 28.4022L24.0251 28.4517L23.9098 28.5001L23.7941 28.5475L23.6778 28.5937L23.5609 28.6388L23.4435 28.6828L23.3257 28.7256L23.2073 28.7673L23.0885 28.8077L22.9693 28.8472L22.8495 28.8853L22.7293 28.9224L22.6087 28.9583L22.4877 28.993L22.3662 29.0266L22.2444 29.059L22.1221 29.0901L21.9996 29.1201L21.8766 29.1489L21.7533 29.1764L21.6297 29.2029L21.5057 29.2281L21.3814 29.252L21.2569 29.2748L21.132 29.2963L21.0069 29.3166L20.8815 29.3358L20.7558 29.3536L20.63 29.3703L20.5039 29.3857L20.3775 29.3998L20.251 29.4128L20.1243 29.4245L19.9974 29.4349L19.8704 29.4442L19.7432 29.4521L19.6159 29.4589L19.4884 29.4643L19.3609 29.4685L19.2332 29.4715L19.1055 29.4731L18.9776 29.4736L18.8498 29.4728L18.7219 29.4707L18.5939 29.4674L18.4659 29.4628L18.3379 29.4569L18.2099 29.4498L18.082 29.4414L17.954 29.4318L17.8262 29.4209L17.6984 29.4087L17.5706 29.3953L17.4429 29.3806L17.3153 29.3646L17.1878 29.3474L17.0605 29.3288L16.9333 29.3091L16.8062 29.2881L16.6793 29.2658L16.5526 29.2423L16.4261 29.2175L16.2997 29.1915L16.1736 29.1641L16.0476 29.1356L15.922 29.1058L15.7966 29.0747L15.6714 29.0424L15.5465 29.0088L15.4219 28.9741L15.2977 28.938L15.1736 28.9008L15.05 28.8622L14.9267 28.8225L14.8038 28.7815L14.6812 28.7393L14.559 28.6958L14.4372 28.6512L14.3157 28.6054L14.1947 28.5583L14.0742 28.51L13.9541 28.4605L13.8344 28.4097L13.7152 28.3579L13.5965 28.3048L13.4783 28.2505L13.3606 28.195L13.2434 28.1383L13.1267 28.0804L13.0106 28.0214L12.895 27.9613L12.78 27.8999L12.6656 27.8374L12.5517 27.7738L12.4385 27.709L12.3259 27.643L12.2139 27.5759L12.1026 27.5077L11.9918 27.4383L11.8818 27.3679L11.7724 27.2963L11.6637 27.2237L11.5557 27.1499L11.4485 27.075L11.3419 26.9991L11.2361 26.922L11.131 26.844L11.0267 26.7647L10.9231 26.6845L10.8203 26.6032L10.7183 26.5209L10.6171 26.4375L10.5167 26.3531L10.4172 26.2677L10.3184 26.1813L10.2205 26.0937L10.1235 26.0053L10.0273 25.9159L9.932 25.8254L9.83758 25.7341L9.74406 25.6416L9.65143 25.5483L9.55972 25.4541L9.46894 25.3588L9.37909 25.2627L9.29019 25.1656L9.20225 25.0676L9.11526 24.9687L9.02926 24.8689L8.94423 24.7682L8.8602 24.6667L8.77718 24.5642L8.69516 24.4609L8.61417 24.3568L8.53421 24.2518L8.45529 24.146L8.37741 24.0393L8.3006 23.9319L8.22484 23.8236L8.15017 23.7146L8.07657 23.6048L8.00407 23.4942L7.93267 23.3829L7.86237 23.2708L7.7932 23.158L7.72514 23.0444L7.65822 22.9301L7.59245 22.8152L7.52781 22.6995L7.46433 22.5832L7.40202 22.4661L7.34087 22.3484L7.2809 22.2301L7.22211 22.1111L7.16453 21.9915L7.10813 21.8713L7.05294 21.7505L6.99896 21.629L6.9462 21.5071L6.89466 21.3845L6.84436 21.2614L6.79529 21.1377L6.74747 21.0135L6.7009 20.8888L6.65558 20.7635L6.61152 20.6378L6.56873 20.5117L6.5272 20.3849L6.48696 20.2578L6.448 20.1302L6.41033 20.0022L6.37395 19.8737L6.33886 19.7449L6.30508 19.6157L6.2726 19.486L6.24144 19.356L6.21159 19.2257L6.18306 19.0949L6.15586 18.9639L6.12998 18.8325L6.10543 18.7009L6.08222 18.5689L6.06035 18.4366L6.03981 18.3041L6.02062 18.1713L6.00278 18.0383L5.9863 17.905L5.97117 17.7716L5.95739 17.6379L5.94497 17.5041L5.93392 17.3701L5.92423 17.2359L5.91591 17.1015L5.90896 16.9671L5.90337 16.8325L5.89916 16.6978L5.89632 16.563L5.89486 16.4281L5.89478 16.2932ZM18.8996 6.41138L18.869 3.81756L18.84 3.82037L18.7066 3.83463L18.5735 3.85018L18.4405 3.86705L18.308 3.88517L18.1756 3.90461L18.0434 3.92535L17.9116 3.94737L17.78 3.9707L17.649 3.99524L17.5178 4.02116L17.3875 4.04824L17.257 4.07669L17.1272 4.10634L16.9976 4.13732L16.8685 4.16948L16.7398 4.20294L16.6114 4.23764L16.4834 4.27359L16.3561 4.31075L16.2289 4.34919L16.1024 4.38883L15.9762 4.42972L15.8507 4.47174L15.7254 4.5151L15.6008 4.55961L15.4768 4.6053L15.3531 4.65223L15.2301 4.70031L15.1077 4.74955L14.9857 4.80006L14.8643 4.85171L14.7435 4.90454L14.6234 4.95848L14.5039 5.0136L14.385 5.06982L14.2666 5.12729L14.149 5.1858L14.032 5.24546L13.9157 5.30624L13.8001 5.36814L13.6852 5.4311L13.5709 5.49523L13.4573 5.56047L13.3446 5.62664L13.2324 5.6941L13.1212 5.76246L13.0107 5.83189L12.9008 5.90245L12.7917 5.97404L12.6835 6.04668L12.5762 6.12017L12.4694 6.19496L12.3636 6.27055L12.2587 6.34719L12.1544 6.42488L12.0511 6.50349L11.9488 6.58305L11.8471 6.66372L11.7465 6.74517L11.6466 6.82768L11.5477 6.91109L11.4496 6.99547L11.3526 7.08065L11.2563 7.16692L11.1611 7.25395L11.0666 7.34199L10.9733 7.43077L10.8809 7.52051L10.7894 7.61106L10.6989 7.7025L10.6093 7.79489L10.5209 7.88792L10.4334 7.98174L10.3468 8.07666L10.2613 8.17219L10.1769 8.26839L10.0933 8.3656L10.011 8.46342L9.92952 8.56212L9.84918 8.66149L9.76989 8.76166L9.69164 8.86251L9.61455 8.96404L9.53845 9.0663L9.46341 9.16938L9.38958 9.27292L9.31673 9.37734L9.24504 9.4823L9.17446 9.58794L9.10494 9.69424L9.03659 9.80116L8.96937 9.90861L8.90327 10.0167L8.83835 10.1254L8.7745 10.2347L8.7118 10.3447L8.65033 10.455L8.58997 10.566L8.53075 10.6776L8.47274 10.7896L8.41587 10.9022L8.36022 11.0151L8.30574 11.1287L8.25245 11.2426L8.20033 11.3572L8.14943 11.472L8.0997 11.5874L8.05118 11.7032L8.0039 11.8194L7.9578 11.936L7.91291 12.053L7.86925 12.1704L7.8268 12.2881L7.78561 12.4062L7.74561 12.5247L7.70684 12.6434L7.66932 12.7625L7.63304 12.8818L7.59797 13.0016L7.56417 13.1215L7.5316 13.2418L7.50026 13.3623L7.47018 13.483L7.44135 13.604L7.41376 13.7252L7.38743 13.8466L7.36235 13.9682L7.33852 14.0899L7.31595 14.2118L7.29463 14.3339L7.27457 14.4562L7.25578 14.5785L7.23823 14.701L7.22195 14.8236L7.20693 14.9463L7.19316 15.069L7.18066 15.1919L7.16942 15.3148L7.15943 15.4377L7.15071 15.5607L7.14324 15.6837L7.13704 15.8066L7.13209 15.9297L7.1284 16.0526L7.12597 16.1756L7.12479 16.2984L7.12487 16.4213L7.1262 16.5441L7.12878 16.6668L7.13261 16.7894L7.13769 16.9119L7.14403 17.0343L7.1516 17.1565L7.16042 17.2786L7.17048 17.4006L7.18178 17.5224L7.19431 17.6441L7.20808 17.7655L7.22308 17.8867L7.23931 18.0077L7.25676 18.1285L7.27545 18.2491L7.29534 18.3693L7.31646 18.4894L7.33879 18.6092L7.36232 18.7286L7.38707 18.8479L7.41301 18.9667L7.44016 19.0853L7.4685 19.2035L7.49803 19.3214L7.52875 19.439L7.56064 19.556L7.59373 19.6729L7.62798 19.7893L7.6634 19.9053L7.69999 20.0209L7.73773 20.136L7.77663 20.2507L7.81668 20.365L7.85787 20.4789L7.90019 20.5922L7.94367 20.7051L7.98825 20.8174L8.03396 20.9293L8.0808 21.0407L8.12874 21.1515L8.17779 21.2619L8.22793 21.3717L8.27917 21.4809L8.33149 21.5896L8.3849 21.6976L8.43937 21.8051L8.49492 21.912L8.55152 22.0184L8.60919 22.1241L8.66789 22.2291L8.72763 22.3335L8.78841 22.4373L8.85022 22.5404L8.91301 22.6429L8.97686 22.7447L9.04168 22.8457L9.10752 22.9462L9.17434 23.0459L9.24213 23.1448L9.31089 23.2431L9.38064 23.3407L9.45132 23.4375L9.52298 23.5335L9.59554 23.6288L9.66907 23.7233L9.74349 23.817L9.81884 23.91L9.89512 24.0022L9.97225 24.0936L10.0503 24.1841L10.1292 24.2738L10.209 24.3628L10.2897 24.4508L10.3712 24.5381L10.4535 24.6244L10.5367 24.71L10.6208 24.7947L10.7056 24.8784L10.7912 24.9613L10.8777 25.0433L10.9649 25.1245L11.0529 25.2047L11.1417 25.284L11.2312 25.3624L11.3215 25.4399L11.4126 25.5164L11.5043 25.592L11.5968 25.6667L11.69 25.7403L11.7838 25.8131L11.8784 25.8849L11.9737 25.9557L12.0696 26.0255L12.1662 26.0943L12.2634 26.1622L12.3613 26.2291L12.4597 26.2949L12.5589 26.3598L12.6586 26.4236L12.7589 26.4864L12.8598 26.5483L12.9612 26.609L13.0633 26.6688L13.1659 26.7275L13.269 26.7851L13.3726 26.8417L13.4769 26.8973L13.5815 26.9518L13.6866 27.0053L13.7923 27.0576L13.8985 27.109L14.0051 27.1592L14.1121 27.2084L14.2196 27.2564L14.3276 27.3035L14.4359 27.3494L14.5447 27.3942L14.6538 27.4379L14.7633 27.4805L14.8732 27.5221L14.9834 27.5625L15.094 27.6018L15.205 27.64L15.3163 27.6771L15.4279 27.7131L15.5397 27.7479L15.652 27.7817L15.7644 27.8143L15.8772 27.8457L15.9902 27.8761L16.1034 27.9053L16.2169 27.9334L16.3305 27.9604L16.4444 27.9863L16.5585 28.0109L16.6728 28.0345L16.7872 28.0569L16.9019 28.0782L17.0166 28.0984L17.1315 28.1174L17.2466 28.1352L17.3617 28.1519L17.477 28.1675L17.5923 28.182L17.7077 28.1952L17.8232 28.2074L17.9388 28.2184L18.0544 28.2282L18.1701 28.237L18.2857 28.2445L18.4014 28.251L18.517 28.2563L18.6327 28.2604L18.7483 28.2635L18.8639 28.2653L18.9794 28.266L19.0949 28.2656L19.2104 28.2641L19.3257 28.2615L19.4409 28.2576L19.5561 28.2527L19.6711 28.2466L19.7859 28.2394L19.9007 28.2311L20.0153 28.2217L20.1297 28.2111L20.2439 28.1994L20.358 28.1866L20.4719 28.1727L20.5855 28.1577L20.699 28.1415L20.8122 28.1243L20.9251 28.106L21.0379 28.0865L21.1503 28.0659L21.2625 28.0443L21.3744 28.0216L21.486 27.9978L21.5972 27.9729L21.7082 27.9469L21.8188 27.9198L21.9291 27.8917L22.039 27.8625L22.1486 27.8322L22.2578 27.8009L22.3666 27.7685L22.4751 27.7351L22.583 27.7007L22.6907 27.6651L22.7979 27.6286L22.9045 27.591L23.0109 27.5523L23.1167 27.5127L23.2221 27.472L23.327 27.4304L23.4313 27.3878L23.5352 27.344L23.6386 27.2994L23.7415 27.2537L23.8438 27.2071L23.9457 27.1594L24.0469 27.1108L24.1476 27.0613L24.2478 27.0107L24.3473 26.9592L24.4463 26.9068L24.5448 26.8534L24.6425 26.7991L24.7397 26.7438L24.8362 26.6877L24.9322 26.6306L25.0274 26.5727L25.1221 26.5137L25.216 26.454L25.3093 26.3933L25.402 26.3317L25.494 26.2692L25.5851 26.206L25.6757 26.1418L25.7655 26.0768L25.8546 26.0109L25.9431 25.9442L26.0307 25.8767L26.1177 25.8083L26.2038 25.7392L26.2892 25.6693L26.3739 25.5984L26.4578 25.5268L26.5408 25.4545L26.6232 25.3814L26.7047 25.3076L26.7854 25.2329L26.8653 25.1575L26.9443 25.0815L27.0226 25.0045L27.1001 24.9269L27.1767 24.8486L27.2524 24.7696L27.3273 24.69L27.4012 24.6097L27.4745 24.5284L27.5467 24.4468L27.6182 24.3643L27.6887 24.2813L27.7583 24.1976L27.827 24.1133L27.8948 24.0284L27.9618 23.9427L28.0278 23.8566L28.0929 23.7698L28.157 23.6825L28.2203 23.5945L28.2827 23.5059L28.3439 23.417L28.4044 23.3273L28.4638 23.2373L28.5223 23.1465L28.58 23.0552L28.6365 22.9636L28.692 22.8714L28.7467 22.7785L28.8003 22.6855L28.853 22.5918L28.9047 22.4976L28.9553 22.4032L29.005 22.308L29.0538 22.2125L29.1013 22.1169L29.1481 22.0205L29.1938 21.9238L29.2384 21.8268L29.282 21.7293L29.3246 21.6315L29.3662 21.5334L29.4068 21.4348L29.4463 21.3359L29.4847 21.2369L29.5222 21.1372L29.5586 21.0375L29.594 20.9374L29.6284 20.837L29.6617 20.7363L29.6938 20.6356L29.7251 20.5341L29.7551 20.4328L29.7842 20.3311L29.8122 20.2293L29.8392 20.1271L29.8651 20.0249L29.89 19.9224L29.9137 19.8197L29.9365 19.7168L29.9581 19.6138L29.9787 19.5108L29.9982 19.4073L30.0167 19.3041L30.0341 19.2005L30.0504 19.0968L30.0656 18.9931L30.0798 18.8892L30.0929 18.7855L30.105 18.6813L30.1159 18.5774L30.1259 18.4733L30.1347 18.3693L30.1424 18.2651L30.1491 18.1612L30.1548 18.057L30.1593 17.9527L30.1628 17.8487L30.1653 17.7448L30.1667 17.6406L30.167 17.5366L30.1663 17.4327L30.1644 17.3289L30.1616 17.2251L30.1576 17.1217L30.1526 17.0179L30.1466 16.9145L30.1395 16.8112L30.1314 16.7082L30.1222 16.605L30.112 16.5022L30.1007 16.3994L30.0883 16.297L30.075 16.1946L30.0606 16.0925L30.0451 15.9904L30.0287 15.8887L30.0112 15.7874L29.9927 15.686L29.9731 15.5849L29.9526 15.4843L29.931 15.3836L29.9085 15.2836L29.8848 15.1835L29.8603 15.0841L29.8346 14.9845L29.808 14.8857L29.7804 14.787L29.7518 14.6885L29.7223 14.5906L29.6918 14.493L29.6602 14.3955L29.6278 14.2988L29.5942 14.2021L29.5598 14.1061L29.5244 14.0102L29.4881 13.915L29.4507 13.82L29.4125 13.7254L29.3733 13.6315L29.3333 13.538L29.2921 13.4446L29.2503 13.3521L29.2072 13.2597L29.1635 13.1682L29.1188 13.0769L29.0731 12.9861L29.0266 12.8959L28.9792 12.8062L28.9308 12.7169L28.8818 12.6284L28.8317 12.5402L28.7808 12.4526L28.7289 12.3655L28.6765 12.2793L28.6228 12.1933L28.5686 12.1081L28.5134 12.0232L28.4574 11.9392L28.4007 11.8558L28.343 11.7728L28.2845 11.6906L28.2253 11.6089L28.1653 11.528L28.1045 11.4476L28.0429 11.3679L27.9805 11.2889L27.9174 11.2105L27.8535 11.1328L27.7888 11.0558L27.7233 10.9794L27.6572 10.9038L27.5905 10.8289L27.5229 10.7546L27.4544 10.681L27.3856 10.6084L27.3157 10.5361L27.2455 10.4649L27.1744 10.3943L27.1027 10.3245L27.0301 10.2552L26.9572 10.187L26.8834 10.1194L26.809 10.0526L26.7341 9.98662L26.6586 9.92141L26.5821 9.8568L26.5053 9.79314L26.4279 9.73029L26.3499 9.66824L26.2712 9.60694L26.1921 9.54664L26.1122 9.48682L26.032 9.42814L25.9511 9.3702L25.8697 9.31301L25.7879 9.25675L25.7052 9.20118L25.6225 9.14674L25.5389 9.09291L25.455 9.04003L25.3704 8.98795L25.2855 8.93675L25.2002 8.8865L25.1145 8.83718L25.028 8.78848L24.9415 8.74091L24.8542 8.69409L24.7666 8.64822L24.6787 8.60328L24.5903 8.55915L24.5015 8.5159L24.4124 8.47366L24.3228 8.43223L24.233 8.39181L24.1427 8.3522L24.0492 8.31232L23.9613 8.27587L23.8698 8.23895L23.7785 8.20318L23.6864 8.16808L23.5943 8.13413L23.5019 8.10098L23.4092 8.06885L23.3161 8.03752L23.2229 8.00727L23.1294 7.9779L23.0356 7.94947L22.9418 7.92205L22.8476 7.89548L22.753 7.86983L22.6586 7.84522L22.564 7.82154L22.4687 7.79874L22.3739 7.77699L22.2785 7.7561L22.1831 7.73623L22.0874 7.71726L21.9919 7.69928L21.896 7.68224L21.8003 7.66619L21.704 7.65103L21.608 7.63687L21.5119 7.62366L21.4156 7.61139L21.3193 7.60008L21.223 7.58975L21.1266 7.58036L21.0302 7.57192L20.9336 7.56444L20.8371 7.5579L20.7408 7.55234L20.6444 7.54773L20.5477 7.54405L20.4515 7.54135L20.3551 7.53958L20.2588 7.53877L20.1624 7.53891L20.1431 7.53913L20.1735 10.1141L20.2282 10.1138L20.2986 10.1142L20.369 10.1153L20.4394 10.1171L20.51 10.1196L20.5805 10.1228L20.651 10.1267L20.7216 10.1313L20.7922 10.1367L20.8628 10.1426L20.9334 10.1494L21.004 10.1568L21.0746 10.1649L21.1451 10.1738L21.2156 10.1833L21.286 10.1936L21.3564 10.2045L21.4268 10.2161L21.4971 10.2285L21.5673 10.2416L21.6374 10.2554L21.7075 10.2699L21.7775 10.2851L21.8474 10.301L21.9171 10.3176L21.9868 10.3349L22.0562 10.3529L22.1256 10.3716L22.1949 10.391L22.264 10.4112L22.333 10.432L22.4018 10.4535L22.4704 10.4757L22.5388 10.4986L22.6071 10.5223L22.6752 10.5466L22.7431 10.5716L22.8107 10.5973L22.8783 10.6237L22.9455 10.6507L23.0125 10.6785L23.0793 10.707L23.1459 10.7361L23.2122 10.7659L23.2782 10.7964L23.344 10.8276L23.4096 10.8594L23.4748 10.892L23.5398 10.9252L23.6045 10.9591L23.6688 10.9936L23.7329 11.0288L23.7967 11.0647L23.8601 11.1012L23.9232 11.1384L23.9861 11.1762L24.0485 11.2147L24.1106 11.2538L24.1723 11.2936L24.2337 11.3341L24.2947 11.3751L24.3554 11.4168L24.4156 11.4592L24.4755 11.5021L24.535 11.5457L24.594 11.5899L24.6527 11.6347L24.7109 11.6802L24.7688 11.7263L24.8262 11.7729L24.8831 11.8202L24.9396 11.8681L24.9957 11.9165L25.0514 11.9656L25.1066 12.0152L25.1612 12.0655L25.2154 12.1163L25.2692 12.1677L25.3224 12.2196L25.3751 12.2722L25.4274 12.3253L25.4792 12.3789L25.5304 12.4331L25.5811 12.4879L25.6313 12.5432L25.681 12.599L25.7301 12.6554L25.7787 12.7123L25.8267 12.7697L25.8742 12.8276L25.9211 12.8861L25.9675 12.945L26.0133 13.0045L26.0585 13.0645L26.1032 13.125L26.1472 13.1859L26.1907 13.2473L26.2335 13.3092L26.2758 13.3716L26.3174 13.4345L26.3584 13.4977L26.3988 13.5615L26.4386 13.6257L26.4778 13.6903L26.5163 13.7554L26.5541 13.821L26.5914 13.8869L26.628 13.9532L26.6639 14.02L26.6992 14.0871L26.7338 14.1547L26.7677 14.2227L26.801 14.2911L26.8336 14.3598L26.8655 14.4288L26.8967 14.4984L26.9272 14.5681L26.9571 14.6383L26.9862 14.7089L27.0147 14.7798L27.0424 14.851L27.0693 14.9224L27.0957 14.9943L27.1212 15.0665L27.1461 15.139L27.1703 15.2117L27.1936 15.2848L27.2163 15.3581L27.2383 15.4317L27.2595 15.5056L27.2799 15.5798L27.2996 15.6543L27.3186 15.7289L27.3368 15.8038L27.3542 15.8789L27.3709 15.9543L27.3869 16.0299L27.402 16.1057L27.4164 16.1817L27.43 16.2579L27.4429 16.3343L27.455 16.4109L27.4662 16.4877L27.4768 16.5645L27.4865 16.6416L27.4955 16.7189L27.5036 16.7963L27.511 16.8738L27.5177 16.9514L27.5234 17.0292L27.5285 17.1071L27.5326 17.185L27.536 17.2631L27.5387 17.3413L27.5405 17.4195L27.5415 17.4979L27.5417 17.5763L27.5411 17.6547L27.5397 17.7332L27.5374 17.8117L27.5344 17.8904L27.5306 17.9689L27.526 18.0475L27.5205 18.1262L27.5143 18.2048L27.5072 18.2834L27.4993 18.3621L27.4906 18.4406L27.4811 18.5192L27.4708 18.5977L27.4597 18.6762L27.4477 18.7546L27.435 18.833L27.4214 18.9113L27.407 18.9895L27.3918 19.0676L27.3758 19.1456L27.3589 19.2236L27.3414 19.3014L27.3229 19.3791L27.3036 19.4566L27.2836 19.5341L27.2627 19.6113L27.241 19.6885L27.2185 19.7654L27.1953 19.8422L27.1712 19.9189L27.1462 19.9953L27.1205 20.0715L27.094 20.1476L27.0667 20.2235L27.0386 20.299L27.0097 20.3744L26.98 20.4496L26.9496 20.5245L26.9183 20.5992L26.8862 20.6736L26.8534 20.7478L26.8198 20.8217L26.7853 20.8953L26.7502 20.9686L26.7142 21.0416L26.6774 21.1143L26.6399 21.1867L26.6017 21.2587L26.5626 21.3305L26.5228 21.4019L26.4823 21.4729L26.4409 21.5436L26.3988 21.614L26.356 21.6839L26.3125 21.7536L26.2681 21.8228L26.2231 21.8916L26.1772 21.96L26.1307 22.0281L26.0835 22.0957L26.0355 22.1629L25.9868 22.2296L25.9374 22.296L25.8873 22.3619L25.8364 22.4273L25.7848 22.4922L25.7326 22.5568L25.6796 22.6208L25.626 22.6844L25.5716 22.7474L25.5166 22.81L25.4609 22.872L25.4045 22.9336L25.3475 22.9947L25.2898 23.0552L25.2314 23.1152L25.1725 23.1747L25.1127 23.2335L25.0525 23.292L24.9915 23.3498L24.9299 23.407L24.8677 23.4637L24.8048 23.5197L24.7414 23.5752L24.6773 23.6302L24.6127 23.6845L24.5474 23.7383L24.4815 23.7914L24.415 23.8438L24.348 23.8957L24.2804 23.947L24.2122 23.9976L24.1434 24.0476L24.0742 24.0969L24.0043 24.1456L23.9339 24.1936L23.8629 24.241L23.7914 24.2877L23.7194 24.3337L23.647 24.379L23.5739 24.4236L23.5004 24.4676L23.4263 24.5109L23.3518 24.5534L23.2768 24.5952L23.2013 24.6364L23.1253 24.6768L23.0489 24.7165L22.9719 24.7554L22.8946 24.7936L22.8169 24.8311L22.7386 24.8678L22.6599 24.9038L22.5809 24.939L22.5014 24.9735L22.4215 25.0072L22.3412 25.0402L22.2606 25.0724L22.1795 25.1038L22.0981 25.1344L22.0163 25.1643L21.9341 25.1933L21.8516 25.2215L21.7688 25.249L21.6856 25.2756L21.6021 25.3015L21.5183 25.3265L21.4341 25.3507L21.3497 25.3742L21.2649 25.3967L21.1799 25.4185L21.0946 25.4395L21.009 25.4596L20.9231 25.4789L20.8371 25.4973L20.7507 25.5149L20.6641 25.5317L20.5774 25.5477L20.4903 25.5627L20.4031 25.577L20.3157 25.5903L20.228 25.6028L20.1402 25.6145L20.0522 25.6253L19.9641 25.6352L19.8758 25.6443L19.7873 25.6525L19.6987 25.6599L19.61 25.6664L19.5212 25.6719L19.4322 25.6767L19.3431 25.6805L19.2539 25.6835L19.1647 25.6856L19.0753 25.6868L18.9859 25.6871L18.8964 25.6866L18.807 25.6851L18.7174 25.6828L18.6278 25.6796L18.5382 25.6754L18.4485 25.6705L18.3589 25.6646L18.2693 25.6579L18.1797 25.6502L18.0901 25.6416L18.0005 25.6322L17.911 25.6219L17.8215 25.6107L17.732 25.5986L17.6427 25.5856L17.5535 25.5717L17.4643 25.5569L17.3751 25.5412L17.2862 25.5247L17.1973 25.5073L17.1086 25.4889L17.0199 25.4697L16.9315 25.4496L16.8432 25.4286L16.755 25.4067L16.667 25.3839L16.5791 25.3603L16.4915 25.3358L16.4041 25.3104L16.3169 25.2841L16.2298 25.257L16.1431 25.2289L16.0565 25.2L15.9702 25.1702L15.8841 25.1395L15.7984 25.108L15.7128 25.0756L15.6276 25.0423L15.5426 25.0082L15.4579 24.9732L15.3736 24.9374L15.2895 24.9007L15.2058 24.8631L15.1224 24.8247L15.0394 24.7855L14.9567 24.7454L14.8744 24.7045L14.7924 24.6627L14.7108 24.6201L14.6296 24.5767L14.5488 24.5324L14.4684 24.4873L14.3884 24.4414L14.3088 24.3947L14.2297 24.3471L14.151 24.2988L14.0727 24.2497L13.995 24.1997L13.9176 24.1489L13.8408 24.0973L13.7644 24.045L13.6885 23.9919L13.6132 23.938L13.5383 23.8833L13.4639 23.8279L13.39 23.7716L13.3167 23.7146L13.244 23.6569L13.1718 23.5983L13.1001 23.5391L13.029 23.4791L12.9584 23.4184L12.8885 23.3569L12.8191 23.2947L12.7503 23.2318L12.6822 23.1682L12.6146 23.1039L12.5476 23.0388L12.4813 22.973L12.4157 22.9066L12.3507 22.8394L12.2862 22.7717L12.2225 22.7032L12.1595 22.634L12.0971 22.5642L12.0353 22.4937L11.9743 22.4226L11.9139 22.3508L11.8543 22.2784L11.7953 22.2053L11.7371 22.1317L11.6796 22.0574L11.6228 21.9824L11.5668 21.9069L11.5114 21.8309L11.4569 21.7541L11.4031 21.6769L11.35 21.599L11.2978 21.5206L11.2463 21.4416L11.1955 21.3621L11.1456 21.2819L11.0964 21.2013L11.0481 21.1201L11.0005 21.0385L10.9538 20.9562L10.9078 20.8736L10.8627 20.7903L10.8184 20.7066L10.775 20.6224L10.7323 20.5377L10.6906 20.4526L10.6496 20.367L10.6096 20.2809L10.5703 20.1944L10.532 20.1074L10.4945 20.0201L10.4579 19.9322L10.4221 19.844L10.3873 19.7554L10.3533 19.6664L10.3202 19.577L10.288 19.4873L10.2568 19.397L10.2264 19.3066L10.1969 19.2157L10.1684 19.1245L10.1407 19.033L10.114 18.9411L10.0882 18.8489L10.0634 18.7564L10.0394 18.6636L10.0164 18.5706L9.99437 18.4772L9.97327 18.3836L9.9531 18.2896L9.93389 18.1955L9.91563 18.1011L9.89832 18.0065L9.88197 17.9116L9.86659 17.8166L9.85217 17.7213L9.83871 17.6259L9.82623 17.5302L9.81472 17.4343L9.80418 17.3383L9.79462 17.2422L9.78603 17.1459L9.77844 17.0494L9.77182 16.9529L9.76618 16.8561L9.76154 16.7593L9.75788 16.6624L9.75522 16.5654L9.75354 16.4683L9.75285 16.3711L9.75317 16.2739L9.75447 16.1766L9.75678 16.0794L9.76008 15.982L9.76438 15.8846L9.76968 15.7872L9.77597 15.6898L9.78328 15.5925L9.79157 15.4951L9.80087 15.3978L9.81118 15.3004L9.82248 15.2032L9.83479 15.106L9.8481 15.0089L9.86241 14.9118L9.87772 14.8149L9.89403 14.718L9.91134 14.6212L9.92966 14.5246L9.94897 14.428L9.96928 14.3317L9.9906 14.2354L10.0129 14.1393L10.0362 14.0434L10.0605 13.9477L10.0858 13.8522L10.1121 13.7568L10.1393 13.6616L10.1676 13.5667L10.1969 13.472L10.2271 13.3775L10.2583 13.2833L10.2905 13.1893L10.3237 13.0956L10.3579 13.0022L10.393 12.909L10.4291 12.8162L10.4662 12.7236L10.5042 12.6314L10.5432 12.5395L10.5832 12.4479L10.6242 12.3566L10.666 12.2658L10.7089 12.1752L10.7527 12.0851L10.7974 11.9953L10.8431 11.906L10.8897 11.817L10.9373 11.7284L10.9858 11.6403L11.0352 11.5526L11.0855 11.4653L11.1368 11.3785L11.189 11.2922L11.2421 11.2063L11.2961 11.1208L11.351 11.0359L11.4068 10.9515L11.4635 10.8675L11.5211 10.7841L11.5796 10.7012L11.6389 10.6188L11.6992 10.537L11.7602 10.4557L11.8222 10.375L11.885 10.2948L11.9487 10.2153L12.0132 10.1363L12.0786 10.0579L12.1448 9.98009L12.2119 9.90288L12.2797 9.82635L12.3485 9.75043L12.4179 9.67511L12.4882 9.60047L12.5594 9.52643L12.6313 9.45313L12.7039 9.38044L12.7774 9.30843L12.8517 9.23715L12.9267 9.16648L13.0025 9.09662L13.0791 9.02736L13.1564 8.95892L13.2344 8.89115L13.3132 8.82411L13.3927 8.75782L13.4729 8.69227L13.5538 8.62747L13.6355 8.56347L13.7179 8.50021L13.8009 8.43776L13.8846 8.37605L13.969 8.31515L14.054 8.25505L14.1398 8.19577L14.2262 8.13729L14.3131 8.07969L14.4008 8.02283L14.4891 7.96685L14.578 7.9117L14.6675 7.8574L14.7577 7.80395L14.8483 7.75136L14.9397 7.69963L15.0316 7.64878L15.124 7.59881L15.217 7.54973L15.3105 7.50153L15.4046 7.45423L15.4993 7.40783L15.5944 7.36235L15.6901 7.31778L15.7863 7.27412L15.883 7.23139L15.9802 7.18959L16.0778 7.14874L16.1759 7.10881L16.2745 7.06984L16.3735 7.03182L16.473 6.99475L16.5729 6.95865L16.6732 6.92351L16.774 6.88934L16.8751 6.85615L16.9766 6.82394L17.0785 6.79271L17.1808 6.76247L17.2835 6.73322L17.3864 6.70497L17.4898 6.67772L17.5935 6.65147L17.6975 6.62623L17.8018 6.60201L17.9064 6.5788L18.0113 6.55661L18.1165 6.53544L18.222 6.5153L18.3277 6.49619L18.4336 6.47811L18.5399 6.46107L18.6463 6.44506L18.7529 6.4301L18.8598 6.41617L18.8996 6.41138ZM18.9447 10.2306L18.914 7.62731L18.8264 7.6396L18.7323 7.65376L18.638 7.66887L18.5444 7.68485L18.4507 7.7018L18.3574 7.71962L18.2643 7.73835L18.1716 7.75796L18.079 7.7785L17.9867 7.79995L17.8946 7.82229L17.8029 7.8455L17.7113 7.86965L17.6233 7.89376L17.5296 7.9205L17.439 7.94725L17.3489 7.97487L17.2592 8.0033L17.1698 8.03267L17.0807 8.06292L16.9919 8.09398L16.9037 8.12584L16.8158 8.15865L16.7283 8.1922L16.6411 8.22669L16.5546 8.26192L16.4681 8.2981L16.3822 8.33502L16.2968 8.37275L16.212 8.41128L16.1273 8.45069L16.0432 8.49091L15.9598 8.5318L15.8765 8.57364L15.7941 8.61615L15.7118 8.6596L15.6303 8.70359L15.549 8.74866L15.4684 8.7942L15.3885 8.84062L15.3089 8.88784L15.2299 8.93574L15.1513 8.98452L15.0735 9.03383L14.9961 9.08402L14.9193 9.13489L14.8432 9.18642L14.7675 9.23877L14.6924 9.29185L14.6181 9.34541L14.5442 9.39991L14.4709 9.45502L14.3983 9.5108L14.3264 9.56719L14.2549 9.62438L14.1842 9.68212L14.1141 9.74053L14.0446 9.79974L13.976 9.85936L13.9078 9.91979L13.8403 9.98083L13.7735 10.0424L13.7075 10.1046L13.6419 10.1675L13.5773 10.2308L13.5132 10.2948L13.4498 10.3595L13.3872 10.4247L13.3253 10.4905L13.264 10.5568L13.2036 10.6236L13.1438 10.691L13.0847 10.7591L13.0265 10.8274L12.969 10.8965L12.9121 10.9661L12.8561 11.0361L12.8008 11.1066L12.7462 11.1777L12.6925 11.2492L12.6394 11.3212L12.5872 11.3937L12.5358 11.4666L12.4852 11.5399L12.4353 11.6138L12.3862 11.6881L12.3378 11.7628L12.2904 11.8378L12.2438 11.9134L12.1979 11.9894L12.1528 12.0657L12.1085 12.1424L12.065 12.2195L12.0225 12.2969L11.9807 12.3748L11.9396 12.453L11.8995 12.5315L11.8602 12.6104L11.8218 12.6896L11.7841 12.7691L11.7473 12.849L11.7114 12.9291L11.6763 13.0095L11.642 13.0902L11.6086 13.1712L11.5761 13.2524L11.5443 13.334L11.5135 13.4158L11.4835 13.4978L11.4543 13.5801L11.4261 13.6625L11.3987 13.7452L11.3722 13.8282L11.3465 13.9113L11.3217 13.9946L11.2978 14.078L11.2747 14.1616L11.2525 14.2455L11.2312 14.3295L11.2108 14.4136L11.1912 14.4979L11.1725 14.5822L11.1547 14.6668L11.1378 14.7514L11.1217 14.8361L11.1066 14.921L11.0923 15.0058L11.0788 15.0909L11.0663 15.1758L11.0546 15.261L11.0439 15.3461L11.034 15.4313L11.0249 15.5166L11.0168 15.6018L11.0095 15.6871L11.0031 15.7724L10.9976 15.8577L10.993 15.943L10.9892 16.0282L10.9863 16.1134L10.9843 16.1986L10.9832 16.2838L10.9829 16.3689L10.9835 16.4539L10.9849 16.5389L10.9873 16.6238L10.9905 16.7085L10.9945 16.7933L10.9995 16.8779L11.0053 16.9623L11.0119 17.0467L11.0194 17.1309L11.0278 17.215L11.037 17.2989L11.047 17.3827L11.058 17.4664L11.0697 17.5498L11.0823 17.6331L11.0958 17.7161L11.1101 17.7991L11.1252 17.8818L11.1411 17.9642L11.1579 18.0465L11.1755 18.1285L11.194 18.2104L11.2132 18.2918L11.2333 18.3731L11.2542 18.4542L11.2759 18.5349L11.2984 18.6154L11.3218 18.6956L11.3459 18.7755L11.3708 18.8551L11.3965 18.9345L11.4231 19.0135L11.4504 19.0921L11.4784 19.1704L11.5073 19.2484L11.5369 19.3261L11.5673 19.4034L11.5985 19.4803L11.6304 19.5569L11.6631 19.6331L11.6966 19.7089L11.7308 19.7843L11.7657 19.8593L11.8014 19.934L11.8378 20.0082L11.875 20.082L11.9128 20.1554L11.9514 20.2284L11.9907 20.3009L12.0307 20.3729L12.0715 20.4446L12.1129 20.5157L12.155 20.5864L12.1979 20.6566L12.2413 20.7264L12.2855 20.7956L12.3304 20.8645L12.3758 20.9326L12.4221 21.0005L12.4688 21.0677L12.5164 21.1345L12.5645 21.2007L12.6133 21.2664L12.6627 21.3315L12.7127 21.3962L12.7633 21.4603L12.8146 21.5238L12.8665 21.5868L12.919 21.6492L12.972 21.711L13.0257 21.7724L13.08 21.833L13.1348 21.8932L13.1902 21.9527L13.2461 22.0116L13.3026 22.07L13.3597 22.1277L13.4173 22.1848L13.4755 22.2413L13.5342 22.2973L13.5934 22.3525L13.6532 22.4072L13.7134 22.4612L13.7741 22.5145L13.8354 22.5673L13.8971 22.6193L13.9593 22.6708L14.022 22.7215L14.0852 22.7717L14.1488 22.8211L14.2129 22.87L14.2774 22.9181L14.3423 22.9655L14.4077 23.0122L14.4735 23.0583L14.5398 23.1037L14.6065 23.1485L14.6735 23.1925L14.741 23.2358L14.8088 23.2784L14.877 23.3203L14.9456 23.3615L15.0146 23.402L15.0838 23.4418L15.1536 23.4809L15.2235 23.5192L15.2939 23.5568L15.3646 23.5938L15.4355 23.6299L15.5068 23.6654L15.5785 23.7001L15.6504 23.7341L15.7225 23.7673L15.7951 23.7998L15.8678 23.8316L15.9408 23.8626L16.0141 23.8929L16.0876 23.9224L16.1613 23.9512L16.2353 23.9792L16.3096 24.0065L16.384 24.033L16.4586 24.0587L16.5335 24.0838L16.6085 24.108L16.6838 24.1315L16.7592 24.1542L16.8348 24.1762L16.9105 24.1974L16.9864 24.2178L17.0624 24.2375L17.1386 24.2564L17.2149 24.2745L17.2913 24.2919L17.3679 24.3085L17.4445 24.3244L17.5212 24.3394L17.5982 24.3537L17.675 24.3672L17.752 24.38L17.8291 24.3919L17.9062 24.4032L17.9834 24.4136L18.0606 24.4233L18.1378 24.4322L18.215 24.4404L18.2924 24.4477L18.3697 24.4543L18.447 24.4601L18.5243 24.4652L18.6015 24.4695L18.6788 24.4731L18.7561 24.4758L18.8333 24.4778L18.9104 24.4791L18.9875 24.4795L19.0645 24.4793L19.1415 24.4782L19.2184 24.4764L19.2952 24.4739L19.372 24.4706L19.4485 24.4665L19.525 24.4617L19.6014 24.4561L19.6777 24.4497L19.7538 24.4427L19.8299 24.4349L19.9058 24.4263L19.9815 24.417L20.057 24.407L20.1324 24.3963L20.2076 24.3847L20.2827 24.3725L20.3574 24.3595L20.4321 24.3458L20.5065 24.3314L20.5808 24.3163L20.6549 24.3004L20.7286 24.2838L20.8021 24.2666L20.8754 24.2485L20.9485 24.2299L21.0213 24.2105L21.0938 24.1903L21.1661 24.1695L21.2381 24.148L21.3098 24.1258L21.3812 24.1029L21.4524 24.0794L21.5232 24.0551L21.5938 24.0302L21.6639 24.0046L21.7338 23.9783L21.8033 23.9514L21.8725 23.9237L21.9415 23.8954L22.01 23.8665L22.0781 23.837L22.1459 23.8068L22.2133 23.7759L22.2804 23.7444L22.3471 23.7123L22.4133 23.6796L22.4793 23.6461L22.5448 23.6122L22.6099 23.5775L22.6745 23.5423L22.7388 23.5065L22.8027 23.47L22.866 23.433L22.9291 23.3953L22.9916 23.3571L23.0536 23.3183L23.1154 23.2789L23.1764 23.239L23.2372 23.1984L23.2975 23.1573L23.3572 23.1157L23.4164 23.0735L23.4753 23.0307L23.5336 22.9875L23.5914 22.9437L23.6488 22.8993L23.7055 22.8545L23.7619 22.809L23.8177 22.763L23.8728 22.7167L23.9277 22.6696L23.9819 22.6222L24.0355 22.5744L24.0888 22.5258L24.1413 22.4771L24.1934 22.4277L24.2449 22.3778L24.2958 22.3276L24.3462 22.2768L24.396 22.2256L24.4453 22.1739L24.4939 22.1218L24.542 22.0693L24.5896 22.0163L24.6364 21.963L24.6829 21.9091L24.7286 21.855L24.7737 21.8004L24.8183 21.7453L24.8622 21.6901L24.9056 21.6342L24.9483 21.5781L24.9904 21.5215L25.0319 21.4647L25.0727 21.4075L25.1131 21.3498L25.1527 21.2919L25.1916 21.2336L25.2301 21.175L25.2677 21.1162L25.3049 21.0569L25.3413 20.9973L25.3771 20.9374L25.4122 20.8773L25.4469 20.8167L25.4806 20.7561L25.5139 20.695L25.5465 20.6337L25.5783 20.5722L25.6096 20.5102L25.6401 20.4484L25.6701 20.3859L25.6992 20.3236L25.7279 20.2606L25.7557 20.1977L25.783 20.1343L25.8096 20.071L25.8354 20.0074L25.8607 19.9435L25.8852 19.8795L25.909 19.8154L25.9323 19.7509L25.9547 19.6864L25.9765 19.6217L25.9977 19.5568L26.0181 19.4918L26.0379 19.4266L26.057 19.3614L26.0754 19.2959L26.093 19.2304L26.1101 19.1648L26.1264 19.099L26.142 19.0333L26.157 18.9672L26.1712 18.9011L26.1848 18.8351L26.1976 18.769L26.2099 18.7027L26.2213 18.6363L26.2321 18.57L26.2423 18.5036L26.2517 18.4371L26.2604 18.3708L26.2684 18.3043L26.2758 18.2376L26.2825 18.1713L26.2885 18.1046L26.2938 18.0381L26.2984 17.9717L26.3023 17.9052L26.3056 17.8387L26.3081 17.7724L26.31 17.7058L26.3111 17.6397L26.3117 17.5733L26.3115 17.507L26.3107 17.4408L26.3091 17.3748L26.3069 17.3088L26.304 17.2428L26.3005 17.1771L26.2962 17.1112L26.2913 17.0456L26.2858 16.9802L26.2796 16.9147L26.2727 16.8495L26.2651 16.7842L26.2569 16.7193L26.248 16.6544L26.2385 16.5896L26.2283 16.5251L26.2175 16.4607L26.206 16.3965L26.1939 16.3325L26.1811 16.2685L26.1676 16.2049L26.1536 16.1415L26.1389 16.0781L26.1236 16.015L26.1076 15.9523L26.091 15.8894L26.0738 15.8271L26.056 15.7649L26.0375 15.703L26.0185 15.6413L25.9987 15.5798L25.9785 15.5186L25.9576 15.4577L25.936 15.3969L25.914 15.3366L25.8912 15.2765L25.8679 15.2167L25.844 15.1571L25.8195 15.0977L25.7945 15.0389L25.7688 14.9802L25.7426 14.9219L25.7159 14.864L25.6885 14.8062L25.6605 14.7487L25.6321 14.6918L25.603 14.635L25.5734 14.5787L25.5433 14.5228L25.5126 14.467L25.4814 14.4118L25.4496 14.3568L25.4173 14.3023L25.3845 14.248L25.3512 14.1943L25.3173 14.1408L25.283 14.0878L25.2481 14.0352L25.2127 13.983L25.1767 13.931L25.1404 13.8796L25.1036 13.8287L25.0662 13.778L25.0284 13.7279L24.99 13.6781L24.9513 13.6288L24.912 13.5799L24.8723 13.5314L24.8321 13.4834L24.7915 13.4358L24.7505 13.3887L24.7089 13.342L24.667 13.2958L24.6246 13.25L24.5819 13.2049L24.5385 13.1599L24.495 13.1157L24.4508 13.0717L24.4064 13.0284L24.3616 12.9855L24.3164 12.9431L24.2707 12.9011L24.2246 12.8598L24.1783 12.8189L24.1314 12.7783L24.0844 12.7386L24.0369 12.699L23.989 12.6601L23.9408 12.6218L23.8922 12.5838L23.8434 12.5465L23.7943 12.5098L23.7447 12.4734L23.6947 12.4375L23.6447 12.4024L23.594 12.3676L23.5434 12.3335L23.4923 12.2999L23.4409 12.2667L23.3892 12.2341L23.3374 12.2022L23.285 12.1706L23.2326 12.1398L23.1797 12.1093L23.1269 12.0796L23.0736 12.0504L23.0201 12.0216L22.9663 11.9935L22.9124 11.966L22.8582 11.9389L22.8037 11.9124L22.7491 11.8865L22.6944 11.8613L22.6391 11.8364L22.5841 11.8123L22.5287 11.7887L22.473 11.7656L22.4172 11.7432L22.3614 11.7214L22.3053 11.7001L22.2488 11.6793L22.1925 11.6592L22.1359 11.6396L22.0791 11.6206L22.0224 11.6022L21.9654 11.5844L21.9084 11.5672L21.851 11.5504L21.7937 11.5344L21.7364 11.5189L21.6788 11.504L21.6213 11.4897L21.5634 11.4759L21.5057 11.4628L21.448 11.4503L21.39 11.4383L21.3319 11.4268L21.2741 11.4161L21.2159 11.4059L21.1579 11.3962L21.0995 11.3871L21.0416 11.3787L20.9831 11.3708L20.9251 11.3636L20.8668 11.3568L20.8086 11.3507L20.7504 11.3452L20.692 11.3402L20.634 11.3358L20.5756 11.332L20.5175 11.3288L20.4595 11.3262L20.4011 11.3241L20.3432 11.3226L20.2852 11.3217L20.2273 11.3214L20.1877 11.3215L20.2177 13.865L20.2356 13.865L20.2689 13.8655L20.3023 13.8663L20.3357 13.8674L20.3691 13.8689L20.4026 13.8707L20.4361 13.8729L20.4696 13.8755L20.5032 13.8784L20.5368 13.8816L20.5704 13.8852L20.6041 13.8891L20.6378 13.8934L20.6714 13.898L20.7051 13.903L20.7388 13.9084L20.7724 13.9141L20.8061 13.9202L20.8398 13.9267L20.8734 13.9334L20.907 13.9406L20.9406 13.9481L20.9742 13.956L21.0077 13.9642L21.0413 13.9727L21.0748 13.9817L21.1082 13.991L21.1416 14.0006L21.175 14.0107L21.2083 14.021L21.2415 14.0318L21.2747 14.0429L21.3078 14.0544L21.3409 14.0662L21.3738 14.0784L21.4067 14.0909L21.4395 14.1038L21.4723 14.117L21.5049 14.1307L21.5374 14.1446L21.5699 14.159L21.6023 14.1736L21.6346 14.1887L21.6667 14.2041L21.6987 14.2198L21.7307 14.2359L21.7624 14.2524L21.7941 14.2692L21.8256 14.2863L21.857 14.3039L21.8883 14.3217L21.9194 14.3399L21.9504 14.3584L21.9813 14.3774L22.0119 14.3966L22.0425 14.4162L22.0728 14.4361L22.103 14.4564L22.1331 14.4771L22.1629 14.498L22.1926 14.5193L22.2221 14.5409L22.2514 14.5629L22.2806 14.5852L22.3095 14.6078L22.3383 14.6308L22.3668 14.6541L22.3951 14.6777L22.4233 14.7017L22.4512 14.7259L22.4789 14.7505L22.5065 14.7754L22.5337 14.8007L22.5608 14.8262L22.5875 14.8521L22.6142 14.8783L22.6405 14.9048L22.6666 14.9316L22.6925 14.9587L22.7181 14.9861L22.7434 15.0139L22.7685 15.0419L22.7934 15.0702L22.818 15.0988L22.8423 15.1277L22.8664 15.1569L22.8901 15.1864L22.9136 15.2162L22.9368 15.2462L22.9598 15.2766L22.9825 15.3072L23.0048 15.3381L23.0268 15.3692L23.0487 15.4007L23.0701 15.4324L23.0913 15.4644L23.1121 15.4966L23.1327 15.5292L23.1529 15.5619L23.1729 15.5949L23.1925 15.6282L23.2117 15.6617L23.2307 15.6954L23.2493 15.7294L23.2676 15.7637L23.2856 15.7982L23.3032 15.8329L23.3205 15.8678L23.3374 15.9029L23.354 15.9384L23.3703 15.9739L23.3862 16.0098L23.4017 16.0458L23.4169 16.0821L23.4317 16.1185L23.4462 16.1551L23.4602 16.192L23.474 16.229L23.4874 16.2663L23.5003 16.3038L23.5129 16.3414L23.5251 16.3791L23.537 16.4171L23.5484 16.4553L23.5595 16.4936L23.5702 16.5321L23.5805 16.5707L23.5904 16.6095L23.5999 16.6486L23.609 16.6877L23.6178 16.7269L23.6261 16.7664L23.634 16.8059L23.6414 16.8455L23.6486 16.8854L23.6553 16.9254L23.6616 16.9654L23.6674 17.0056L23.6729 17.0459L23.6779 17.0863L23.6825 17.1269L23.6867 17.1675L23.6905 17.2082L23.6939 17.249L23.6968 17.29L23.6993 17.3309L23.7014 17.372L23.703 17.4132L23.7043 17.4544L23.705 17.4957L23.7054 17.5371L23.7053 17.5784L23.7048 17.6199L23.7039 17.6615L23.7025 17.7031L23.7006 17.7447L23.6984 17.7863L23.6957 17.828L23.6925 17.8697L23.6889 17.9115L23.6849 17.9533L23.6804 17.995L23.6755 18.0368L23.6701 18.0786L23.6643 18.1205L23.6581 18.1623L23.6514 18.204L23.6442 18.2458L23.6366 18.2876L23.6286 18.3293L23.6201 18.371L23.6111 18.4127L23.6017 18.4544L23.5919 18.496L23.5816 18.5376L23.5708 18.5791L23.5597 18.6206L23.548 18.662L23.5359 18.7033L23.5234 18.7446L23.5104 18.7858L23.497 18.8269L23.4831 18.868L23.4688 18.909L23.454 18.9498L23.4388 18.9906L23.4231 19.0312L23.407 19.0719L23.3905 19.1123L23.3735 19.1526L23.356 19.1929L23.3381 19.233L23.3198 19.273L23.301 19.3128L23.2817 19.3525L23.2621 19.3921L23.242 19.4315L23.2215 19.4707L23.2005 19.5098L23.179 19.5488L23.1572 19.5876L23.135 19.6262L23.1122 19.6646L23.0891 19.7028L23.0655 19.741L23.0415 19.7788L23.0171 19.8165L22.9922 19.854L22.967 19.8913L22.9413 19.9284L22.9152 19.9652L22.8886 20.0019L22.8617 20.0383L22.8343 20.0745L22.8065 20.1105L22.7783 20.1463L22.7497 20.1818L22.7207 20.217L22.6914 20.252L22.6616 20.2868L22.6313 20.3213L22.6007 20.3555L22.5697 20.3895L22.5383 20.4232L22.5065 20.4566L22.4743 20.4898L22.4418 20.5227L22.4088 20.5552L22.3755 20.5876L22.3418 20.6196L22.3077 20.6512L22.2733 20.6826L22.2384 20.7138L22.2033 20.7446L22.1677 20.775L22.1318 20.8051L22.0955 20.835L22.0588 20.8645L22.0219 20.8936L21.9845 20.9224L21.9469 20.9509L21.9088 20.9791L21.8705 21.0068L21.8318 21.0342L21.7928 21.0614L21.7534 21.0881L21.7137 21.1145L21.6737 21.1404L21.6334 21.1661L21.5927 21.1913L21.5518 21.2162L21.5105 21.2407L21.469 21.2648L21.4271 21.2885L21.3849 21.3118L21.3425 21.3348L21.2997 21.3573L21.2567 21.3794L21.2134 21.4011L21.1698 21.4225L21.1259 21.4434L21.0818 21.4638L21.0374 21.4839L20.9927 21.5035L20.9478 21.5228L20.9026 21.5416L20.8572 21.5599L20.8115 21.5778L20.7656 21.5953L20.7194 21.6124L20.6731 21.629L20.6265 21.6452L20.5796 21.6609L20.5326 21.6762L20.4853 21.6909L20.4379 21.7053L20.3902 21.7192L20.3423 21.7326L20.2943 21.7456L20.246 21.7581L20.1976 21.7702L20.1489 21.7817L20.1001 21.7928L20.0511 21.8034L20.002 21.8136L19.9527 21.8232L19.9032 21.8323L19.8536 21.841L19.8038 21.8493L19.754 21.8569L19.7039 21.8641L19.6538 21.8709L19.6034 21.8772L19.553 21.8829L19.5025 21.8881L19.4518 21.8928L19.4011 21.897L19.3502 21.9008L19.2992 21.904L19.2482 21.9067L19.1971 21.9089L19.1459 21.9106L19.0945 21.9118L19.0432 21.9125L18.9918 21.9127L18.9403 21.9123L18.8888 21.9114L18.8372 21.91L18.7856 21.9081L18.7339 21.9057L18.6821 21.9027L18.6304 21.8993L18.5786 21.8953L18.5269 21.8908L18.4751 21.8858L18.4234 21.8802L18.3715 21.8741L18.3198 21.8675L18.268 21.8604L18.2162 21.8528L18.1645 21.8445L18.1128 21.8359L18.0612 21.8266L18.0095 21.8169L17.9579 21.8066L17.9064 21.7958L17.8549 21.7845L17.8035 21.7725L17.7522 21.7601L17.7008 21.7473L17.6496 21.7338L17.5986 21.7198L17.5475 21.7053L17.4966 21.6903L17.4457 21.6747L17.395 21.6586L17.3444 21.642L17.2939 21.6249L17.2435 21.6073L17.1933 21.5891L17.1431 21.5704L17.0932 21.5512L17.0433 21.5314L16.9937 21.5111L16.9442 21.4904L16.8948 21.4691L16.8456 21.4473L16.7966 21.425L16.7478 21.4021L16.6991 21.3788L16.6506 21.3549L16.6024 21.3305L16.5543 21.3057L16.5065 21.2803L16.4588 21.2544L16.4114 21.228L16.3642 21.2011L16.3171 21.1737L16.2704 21.1458L16.2239 21.1174L16.1777 21.0885L16.1316 21.0592L16.0859 21.0293L16.0404 20.9989L15.9951 20.9681L15.9502 20.9368L15.9055 20.905L15.8611 20.8727L15.817 20.8399L15.7732 20.8067L15.7297 20.773L15.6865 20.7388L15.6436 20.7041L15.601 20.669L15.5587 20.6335L15.5168 20.5974L15.4752 20.5609L15.4339 20.524L15.3929 20.4866L15.3523 20.4487L15.3121 20.4105L15.2722 20.3717L15.2326 20.3326L15.1935 20.293L15.1547 20.253L15.1162 20.2125L15.0782 20.1717L15.0405 20.1303L15.0033 20.0886L14.9664 20.0465L14.9299 20.0039L14.8938 19.961L14.8581 19.9176L14.8229 19.8738L14.7881 19.8297L14.7536 19.7852L14.7196 19.7402L14.6861 19.6949L14.653 19.6492L14.6203 19.6031L14.588 19.5566L14.5562 19.5098L14.5249 19.4627L14.494 19.4151L14.4636 19.3672L14.4336 19.319L14.4041 19.2704L14.3751 19.2214L14.3466 19.1722L14.3185 19.1225L14.2909 19.0726L14.2638 19.0223L14.2372 18.9718L14.2111 18.9208L14.1855 18.8696L14.1604 18.8182L14.1358 18.7663L14.1117 18.7142L14.0882 18.6618L14.0652 18.6091L14.0426 18.5561L14.0206 18.5029L13.9991 18.4493L13.9782 18.3955L13.9578 18.3415L13.938 18.2872L13.9187 18.2326L13.8999 18.1778L13.8816 18.1228L13.864 18.0675L13.8468 18.012L13.8303 17.9562L13.8142 17.9003L13.7988 17.8441L13.784 17.7877L13.7696 17.7311L13.7559 17.6743L13.7428 17.6174L13.7301 17.5602L13.7181 17.5029L13.7067 17.4453L13.6958 17.3877L13.6856 17.3298L13.6759 17.2718L13.6669 17.2136L13.6583 17.1553L13.6504 17.0969L13.6432 17.0383L13.6364 16.9796L13.6303 16.9207L13.6248 16.8618L13.6199 16.8027L13.6156 16.7435L13.612 16.6843L13.6089 16.6249L13.6064 16.5655L13.6045 16.5059L13.6033 16.4463L13.6027 16.3867L13.6026 16.3269L13.6032 16.2671L13.6045 16.2073L13.6063 16.1474L13.6088 16.0874L13.6119 16.0275L13.6156 15.9675L13.6199 15.9075L13.6248 15.8475L13.6304 15.7874L13.6366 15.7274L13.6434 15.6674L13.6509 15.6074L13.6589 15.5474L13.6677 15.4875L13.677 15.4275L13.687 15.3676L13.6975 15.3077L13.7087 15.2479L13.7206 15.1881L13.7331 15.1285L13.7462 15.0688L13.7599 15.0093L13.7742 14.9499L13.7892 14.8904L13.8048 14.8312L13.8211 14.772L13.8379 14.7129L13.8554 14.6539L13.8735 14.5951L13.8922 14.5363L13.9115 14.4777L13.9315 14.4193L13.9521 14.361L13.9733 14.3029L13.9952 14.2448L14.0176 14.187L14.0407 14.1294L14.0644 14.0718L14.0887 14.0146L14.1136 13.9575L14.1392 13.9005L14.1653 13.8438L14.1921 13.7873L14.2194 13.731L14.2474 13.6749L14.2759 13.6191L14.3051 13.5635L14.3348 13.5081L14.3652 13.453L14.3961 13.3981L14.4277 13.3435L14.4598 13.2892L14.4926 13.2351L14.5259 13.1812L14.5598 13.1277L14.5943 13.0745L14.6294 13.0215L14.665 12.9689L14.7012 12.9165L14.738 12.8645L14.7754 12.8129L14.8133 12.7615L14.8518 12.7104L14.8908 12.6597L14.9304 12.6093L14.9706 12.5594L15.0114 12.5096L15.0526 12.4604L15.0944 12.4114L15.1367 12.3628L15.1796 12.3147L15.223 12.2668L15.267 12.2195L15.3115 12.1725L15.3565 12.1258L15.402 12.0796L15.448 12.0338L15.4946 11.9884L15.5417 11.9435L15.5892 11.8989L15.6373 11.8548L15.6858 11.8112L15.7349 11.7679L15.7845 11.7252L15.8345 11.6828L15.885 11.641L15.9359 11.5996L15.9874 11.5587L16.0393 11.5182L16.0917 11.4783L16.1445 11.4388L16.1978 11.3998L16.2516 11.3613L16.3057 11.3233L16.3604 11.2858L16.4155 11.2488L16.4709 11.2124L16.5268 11.1765L16.5832 11.141L16.6399 11.1062L16.6971 11.0718L16.7546 11.038L16.8126 11.0047L16.8709 10.972L16.9296 10.9398L16.9887 10.9082L17.0482 10.8771L17.108 10.8466L17.1682 10.8167L17.2288 10.7873L17.2898 10.7585L17.3511 10.7303L17.4127 10.7027L17.4746 10.6757L17.537 10.6492L17.5996 10.6233L17.6624 10.5981L17.7257 10.5735L17.7893 10.5494L17.8531 10.526L17.9173 10.5032L17.9818 10.481L18.0465 10.4594L18.1115 10.4385L18.1767 10.4181L18.2423 10.3984L18.3081 10.3794L18.3741 10.361L18.4404 10.3432L18.5069 10.326L18.5737 10.3095L18.6407 10.2937L18.7079 10.2785L18.7753 10.264L18.8429 10.2501L18.9107 10.2369L18.9447 10.2306ZM19.7782 15.1217L19.0047 15.3072L18.9592 11.4608L18.9228 11.4691L18.8679 11.4821L18.8131 11.4956L18.7586 11.5096L18.7043 11.5242L18.6503 11.5393L18.5962 11.555L18.5427 11.571L18.4891 11.5877L18.4362 11.6047L18.3831 11.6225L18.3303 11.6407L18.2779 11.6593L18.2256 11.6784L18.1738 11.6981L18.122 11.7183L18.0705 11.7389L18.0194 11.76L17.9683 11.7817L17.9179 11.8036L17.8675 11.8263L17.8176 11.8492L17.7677 11.8728L17.7184 11.8967L17.6691 11.9212L17.6204 11.946L17.5718 11.9714L17.5237 11.9972L17.4758 12.0234L17.4282 12.0501L17.381 12.0772L17.3343 12.1047L17.2875 12.1328L17.2413 12.1611L17.1956 12.19L17.1501 12.2192L17.1048 12.2489L17.0601 12.279L17.0156 12.3096L16.9715 12.3404L16.9279 12.3717L16.8845 12.4034L16.8415 12.4355L16.799 12.468L16.7568 12.5009L16.715 12.534L16.6737 12.5676L16.6326 12.6017L16.592 12.6361L16.5518 12.6707L16.512 12.7058L16.4726 12.7412L16.4336 12.777L16.3951 12.8131L16.3569 12.8496L16.3192 12.8863L16.2818 12.9235L16.245 12.9609L16.2086 12.9987L16.1726 13.0367L16.1369 13.0752L16.1018 13.1138L16.0671 13.1528L16.0328 13.1921L15.999 13.2316L15.9656 13.2716L15.9328 13.3116L15.9002 13.3521L15.8683 13.3928L15.8367 13.4338L15.8056 13.4751L15.775 13.5165L15.7448 13.5582L15.7151 13.6002L15.6859 13.6425L15.6571 13.6849L15.6288 13.7277L15.6011 13.7706L15.5737 13.8137L15.5468 13.8571L15.5205 13.9007L15.4946 13.9446L15.4692 13.9884L15.4442 14.0327L15.4197 14.0771L15.3958 14.1216L15.3723 14.1664L15.3494 14.2113L15.3268 14.2565L15.3049 14.3016L15.2834 14.3472L15.2624 14.3927L15.2419 14.4385L15.2218 14.4843L15.2023 14.5304L15.1833 14.5765L15.1648 14.6229L15.1468 14.6693L15.1292 14.7158L15.1122 14.7624L15.0957 14.8092L15.0797 14.8561L15.0642 14.903L15.0491 14.9501L15.0346 14.9973L15.0206 15.0445L15.0072 15.0917L14.9942 15.1392L14.9816 15.1867L14.9697 15.2342L14.9582 15.2817L14.9472 15.3293L14.9367 15.377L14.9268 15.4248L14.9173 15.4725L14.9083 15.5203L14.8999 15.5682L14.892 15.6159L14.8845 15.6638L14.8775 15.7117L14.8711 15.7595L14.8652 15.8075L14.8598 15.8552L14.8548 15.9031L14.8504 15.9511L14.8464 15.9989L14.843 16.0467L14.84 16.0945L14.8375 16.1422L14.8356 16.1899L14.8341 16.2375L14.8332 16.2852L14.8326 16.3328L14.8327 16.3803L14.8332 16.4277L14.8342 16.4751L14.8357 16.5224L14.8376 16.5697L14.84 16.6168L14.843 16.6638L14.8464 16.7108L14.8503 16.7577L14.8547 16.8044L14.8595 16.8512L14.8648 16.8976L14.8706 16.9442L14.8768 16.9904L14.8836 17.0367L14.8908 17.0827L14.8984 17.1286L14.9065 17.1745L14.9151 17.2201L14.9242 17.2656L14.9336 17.3109L14.9436 17.3562L14.954 17.4012L14.9649 17.4461L14.9762 17.4907L14.988 17.5354L15.0001 17.5796L15.0128 17.6239L15.0259 17.6678L15.0393 17.7117L15.0533 17.7553L15.0677 17.7986L15.0825 17.8419L15.0977 17.8849L15.1134 17.9276L15.1294 17.9703L15.1459 18.0126L15.1628 18.0547L15.1801 18.0966L15.1978 18.1383L15.216 18.1798L15.2345 18.221L15.2534 18.262L15.2728 18.3026L15.2924 18.3431L15.3126 18.3834L15.333 18.4233L15.3539 18.463L15.3752 18.5025L15.3968 18.5416L15.4189 18.5805L15.4412 18.6192L15.464 18.6575L15.4871 18.6956L15.5105 18.7334L15.5344 18.7709L15.5586 18.8081L15.5831 18.845L15.608 18.8817L15.6331 18.9179L15.6587 18.954L15.6846 18.9897L15.7108 19.0251L15.7374 19.0603L15.7643 19.095L15.7915 19.1295L15.819 19.1636L15.8468 19.1975L15.8749 19.2309L15.9034 19.2641L15.9321 19.297L15.9611 19.3295L15.9906 19.3617L16.0201 19.3934L16.05 19.425L16.0802 19.4561L16.1106 19.4869L16.1414 19.5174L16.1724 19.5475L16.2037 19.5773L16.2353 19.6066L16.2671 19.6357L16.2992 19.6644L16.3314 19.6927L16.364 19.7206L16.3967 19.7482L16.4297 19.7755L16.463 19.8023L16.4966 19.8288L16.5302 19.8549L16.5642 19.8806L16.5983 19.906L16.6327 19.931L16.6673 19.9556L16.702 19.9799L16.737 20.0037L16.7722 20.0271L16.8075 20.0502L16.843 20.0729L16.8788 20.0953L16.9146 20.1171L16.9507 20.1386L16.987 20.1598L17.0233 20.1805L17.0598 20.2008L17.0966 20.2208L17.1335 20.2404L17.1705 20.2595L17.2076 20.2782L17.2449 20.2966L17.2823 20.3145L17.3199 20.3321L17.3576 20.3493L17.3953 20.366L17.4333 20.3824L17.4713 20.3983L17.5094 20.4139L17.5476 20.4291L17.5859 20.4438L17.6245 20.4581L17.6628 20.472L17.7016 20.4856L17.7402 20.4987L17.7789 20.5114L17.8177 20.5237L17.8567 20.5356L17.8956 20.5471L17.9346 20.5582L17.9737 20.5689L18.0128 20.5792L18.052 20.589L18.0912 20.5985L18.1303 20.6075L18.1696 20.6161L18.2089 20.6244L18.2483 20.6322L18.2876 20.6397L18.3269 20.6467L18.3663 20.6534L18.4057 20.6596L18.4451 20.6655L18.4844 20.6709L18.5238 20.6758L18.5631 20.6805L18.6025 20.6847L18.6418 20.6885L18.6811 20.6919L18.7204 20.695L18.7596 20.6976L18.7988 20.6998L18.838 20.7016L18.877 20.7031L18.9162 20.7041L18.9551 20.7048L18.9941 20.7051L19.033 20.7049L19.0718 20.7045L19.1106 20.7035L19.1494 20.7022L19.1879 20.7006L19.2264 20.6985L19.265 20.6961L19.3032 20.6933L19.3416 20.6901L19.3797 20.6865L19.4178 20.6826L19.4558 20.6783L19.4936 20.6736L19.5314 20.6686L19.569 20.6631L19.6065 20.6573L19.644 20.6512L19.6812 20.6446L19.7183 20.6378L19.7554 20.6305L19.7923 20.6229L19.8289 20.6149L19.8654 20.6066L19.9019 20.598L19.9383 20.5889L19.9744 20.5796L20.0103 20.5699L20.0461 20.5599L20.0819 20.5495L20.1173 20.5387L20.1525 20.5277L20.1878 20.5162L20.2227 20.5045L20.2574 20.4925L20.292 20.4801L20.3264 20.4674L20.3607 20.4543L20.3947 20.441L20.4284 20.4273L20.4621 20.4134L20.4955 20.399L20.5288 20.3844L20.5616 20.3695L20.5945 20.3543L20.6271 20.3388L20.6594 20.323L20.6916 20.3069L20.7234 20.2905L20.7551 20.2738L20.7866 20.2567L20.8178 20.2395L20.8488 20.222L20.8796 20.2041L20.9101 20.186L20.9403 20.1676L20.9703 20.1489L21.0001 20.13L21.0296 20.1109L21.0589 20.0914L21.0879 20.0717L21.1167 20.0517L21.1452 20.0315L21.1734 20.0111L21.2014 19.9904L21.2291 19.9694L21.2566 19.9482L21.2838 19.9268L21.3107 19.9051L21.3373 19.8832L21.3637 19.8612L21.3897 19.8388L21.4155 19.8162L21.4411 19.7934L21.4663 19.7704L21.4913 19.7472L21.5158 19.7239L21.5403 19.7002L21.5644 19.6764L21.5882 19.6524L21.6117 19.6282L21.6348 19.6037L21.6577 19.5792L21.6804 19.5544L21.7026 19.5295L21.7247 19.5043L21.7464 19.479L21.7677 19.4536L21.7889 19.4278L21.8096 19.4021L21.8301 19.3761L21.8503 19.35L21.8701 19.3238L21.8897 19.2973L21.9089 19.2708L21.9278 19.244L21.9465 19.2171L21.9647 19.1902L21.9827 19.163L22.0004 19.1358L22.0177 19.1084L22.0347 19.081L22.0514 19.0533L22.0678 19.0256L22.0839 18.9978L22.0996 18.9698L22.1151 18.9418L22.1302 18.9135L22.1449 18.8854L22.1594 18.857L22.1735 18.8286L22.1873 18.8001L22.2008 18.7714L22.214 18.7428L22.2268 18.714L22.2393 18.6852L22.2515 18.6563L22.2633 18.6274L22.2749 18.5982L22.2861 18.5693L22.297 18.5399L22.3075 18.511L22.3177 18.4816L22.3277 18.4523L22.3372 18.423L22.3465 18.3937L22.3554 18.3644L22.3641 18.3347L22.3722 18.3055L22.3803 18.2758L22.3879 18.2465L22.3952 18.2169L22.4022 18.1872L22.4088 18.1578L22.4151 18.1284L22.4212 18.0987L22.4269 18.0692L22.4322 18.0395L22.4373 18.0101L22.442 17.9806L22.4465 17.9511L22.4506 17.9215L22.4543 17.892L22.4578 17.8626L22.461 17.8333L22.4638 17.8037L22.4663 17.7744L22.4685 17.745L22.4704 17.7157L22.472 17.6865L22.4733 17.6573L22.4742 17.6283L22.4749 17.5991L22.4753 17.5699L22.4754 17.541L22.4751 17.5121L22.4746 17.4832L22.4737 17.4545L22.4726 17.4256L22.4711 17.3972L22.4694 17.3682L22.4673 17.34L22.465 17.3117L22.4624 17.2831L22.4594 17.2549L22.4563 17.2269L22.4527 17.1985L22.4489 17.1708L22.4449 17.1428L22.4406 17.1153L22.4359 17.0875L22.431 17.0598L22.4258 17.0325L22.4204 17.0052L22.4146 16.9778L22.4085 16.9508L22.4023 16.9238L22.3957 16.897L22.389 16.8704L22.3818 16.8436L22.3745 16.8173L22.3669 16.7908L22.359 16.7647L22.3509 16.7386L22.3425 16.7128L22.3339 16.687L22.3249 16.6612L22.3159 16.6359L22.3065 16.6106L22.2968 16.5853L22.2869 16.5604L22.2768 16.5353L22.2665 16.5109L22.2559 16.4861L22.2451 16.4618L22.2341 16.4377L22.2228 16.4136L22.2113 16.3897L22.1996 16.366L22.1876 16.3424L22.1755 16.3191L22.1631 16.2959L22.1505 16.273L22.1377 16.2501L22.1246 16.2275L22.1114 16.2051L22.098 16.1828L22.0843 16.1607L22.0705 16.1389L22.0565 16.1172L22.0423 16.0957L22.0278 16.0744L22.0133 16.0534L21.9984 16.0324L21.9835 16.0117L21.9683 15.9912L21.9529 15.971L21.9375 15.9509L21.9217 15.9309L21.9059 15.9113L21.8898 15.8919L21.8737 15.8726L21.8573 15.8535L21.8409 15.8347L21.8241 15.8161L21.8073 15.7978L21.7903 15.7795L21.7732 15.7616L21.7559 15.7439L21.7384 15.7263L21.7209 15.709L21.7032 15.692L21.6854 15.6751L21.6673 15.6584L21.6493 15.6421L21.6311 15.6258L21.6127 15.6099L21.5942 15.5942L21.5756 15.5787L21.5569 15.5634L21.5381 15.5484L21.5192 15.5336L21.5001 15.519L21.481 15.5047L21.4617 15.4906L21.4423 15.4767L21.423 15.4631L21.4034 15.4496L21.3838 15.4365L21.3641 15.4235L21.3442 15.4108L21.3244 15.3983L21.3044 15.3861L21.2844 15.3741L21.2643 15.3624L21.2441 15.3508L21.2238 15.3395L21.2035 15.3285L21.1832 15.3176L21.1627 15.307L21.1423 15.2967L21.1216 15.2866L21.1011 15.2767L21.0804 15.2672L21.0597 15.2577L21.039 15.2486L21.0181 15.2396L20.9975 15.231L20.9765 15.2226L20.9556 15.2143L20.9347 15.2064L20.9138 15.1986L20.8928 15.1912L20.8718 15.1839L20.8508 15.1768L20.8299 15.1701L20.8088 15.1635L20.7877 15.1572L20.7668 15.1511L20.7456 15.1452L20.7247 15.1396L20.7036 15.1342L20.6825 15.1291L20.6614 15.1241L20.6404 15.1194L20.6194 15.115L20.5984 15.1107L20.5774 15.1067L20.5565 15.1029L20.5354 15.0993L20.5146 15.096L20.4935 15.0929L20.4728 15.0901L20.4519 15.0874L20.4311 15.0849L20.4104 15.0827L20.3896 15.0808L20.3689 15.0789L20.3482 15.0774L20.3276 15.076L20.307 15.0749L20.2865 15.074L20.2662 15.0733L20.2457 15.0728L20.2254 15.0725L20.205 15.0725L20.1848 15.0727L20.1646 15.073L20.1446 15.0735L20.1245 15.0744L20.1046 15.0753L20.0846 15.0765L20.0649 15.0779L20.0452 15.0794L20.0255 15.0812L20.006 15.0832L19.9864 15.0853L19.967 15.0877L19.9477 15.0903L19.9285 15.093L19.9093 15.096L19.8903 15.0991L19.8713 15.1024L19.8526 15.1059L19.8338 15.1096L19.8152 15.1134L19.7966 15.1175L19.7782 15.1217Z" fill="#E6C89B"/>
</g>
</svg>
