<svg width="112" height="32" viewBox="0 0 112 32" fill="none" xmlns="http://www.w3.org/2000/svg">
<g style="mix-blend-mode:luminosity">
<path d="M35.5993 9.57849V19.097L29.6248 9.57849H27.235V22.7205H29.6248V13.277L35.5993 22.7205H37.9891V9.57849H35.5993Z" fill="#FA6F33"/>
<path d="M39.066 12.0379H41.5293V9.57849H39.066V12.0379ZM39.1027 22.7205V13.3333H41.4925V22.7205H39.1027Z" fill="#FA6F33"/>
<path d="M51.7749 18.0269C51.7749 14.779 49.5138 13.2395 47.124 13.2207C44.7158 13.2019 42.4914 14.779 42.4914 18.0269C42.4914 21.2749 44.7158 22.8519 47.124 22.8331C49.3115 22.8143 50.819 21.7818 51.5175 20.0733L49.6608 19.2848C49.091 20.4488 48.1902 20.8618 47.124 20.8806C46.2048 20.8994 45.157 20.4488 44.9364 18.7779H51.7197C51.7565 18.5338 51.7749 18.2898 51.7749 18.0269ZM47.124 15.1544C48.0431 15.1732 48.9807 15.6801 49.2748 17.0319H44.9731C45.2856 15.6614 46.2232 15.1357 47.124 15.1544Z" fill="#FA6F33"/>
<path d="M57.2979 15.0794V13.2207H55.7905V10.7049L53.4006 11.4559V13.2207H51.8932V15.0794H53.4006V19.9419C53.4006 21.7818 53.5477 22.7205 56.3419 22.7205H56.9854V20.5802H56.3419C55.9008 20.5802 55.7905 20.5051 55.7905 19.9419V15.0794H57.2979Z" fill="#FA6F33"/>
<path d="M60.849 20.6741L65.9227 15.3797V13.3333H58.3121V15.3797H63.2388L58.165 20.6741V22.7205H65.9779V20.6741H60.849Z" fill="#FA6F33"/>
<path d="M66.8347 20.0733L69.2429 19.6978C69.4083 20.6365 70.4929 20.9932 71.1547 20.9932C71.8349 20.9932 73.0114 20.843 73.0114 19.7166C73.0114 17.52 67.1104 20.261 67.1104 16.0556C67.1104 13.3521 70.1804 13.2019 71.1547 13.2019C72.0739 13.2019 74.7394 13.3521 75.2909 15.5299L73.0114 16.0181C72.8092 15.023 71.7798 14.8353 71.2283 14.8353C70.6768 14.8353 69.5002 14.9667 69.5002 16.0556C69.5002 18.2334 75.4012 15.4548 75.4012 19.7166C75.4012 22.5891 72.1658 22.8331 71.1547 22.8331C70.2356 22.8331 67.3127 22.5891 66.8347 20.0733Z" fill="#FA6F33"/>
<path d="M78.5058 18.0269C78.5058 20.3174 79.7007 21.012 80.9508 20.9932C82.0722 20.9745 82.8442 20.5051 83.3038 19.1909L85.2708 20.1672C84.5539 22.0822 82.8075 22.8143 80.9508 22.8331C78.5426 22.8519 76.116 21.2749 76.116 18.0269C76.116 14.779 78.5426 13.2019 80.9508 13.2207C82.8075 13.2395 84.5539 13.9717 85.2708 15.8866L83.3038 16.8629C82.8442 15.5487 82.0722 15.0794 80.9508 15.0606C79.7007 15.0418 78.5058 15.7365 78.5058 18.0269Z" fill="#FA6F33"/>
<path d="M91.6864 13.1832C90.4547 13.1832 89.3334 13.8403 88.6164 15.2483V9.57849H86.2266V22.7205H88.6164V19.3974C88.6164 15.0981 90.3628 14.7414 91.0062 14.7414C92.0357 14.7414 92.1827 15.8303 92.1827 17.4261V22.7205H94.5725V17.4261C94.5725 15.4361 94.26 13.1832 91.6864 13.1832Z" fill="#FA6F33"/>
<path d="M104.662 18.0269C104.662 14.779 102.401 13.2395 100.011 13.2207C97.6032 13.2019 95.3788 14.779 95.3788 18.0269C95.3788 21.2749 97.6032 22.8519 100.011 22.8331C102.199 22.8143 103.706 21.7818 104.405 20.0733L102.548 19.2848C101.978 20.4488 101.078 20.8618 100.011 20.8806C99.0922 20.8994 98.0444 20.4488 97.8238 18.7779H104.607C104.644 18.5338 104.662 18.2898 104.662 18.0269ZM100.011 15.1544C100.931 15.1732 101.868 15.6801 102.162 17.0319H97.8605C98.1731 15.6614 99.1106 15.1357 100.011 15.1544Z" fill="#FA6F33"/>
<path d="M14.2253 18.8555V24.6809C14.2253 24.9043 14.1384 25.1184 13.9838 25.2763C13.8292 25.4342 13.6195 25.5229 13.4008 25.5229C13.1822 25.5229 12.9725 25.4342 12.8179 25.2763C12.6632 25.1184 12.5764 24.9043 12.5764 24.6809V18.8635C12.806 19.0348 13.0811 19.1303 13.3653 19.1375C13.6751 19.1465 13.9786 19.047 14.2253 18.8555ZM21.2469 17.1715C21.0377 17.1715 20.837 17.2564 20.689 17.4075C20.5411 17.5586 20.458 17.7636 20.458 17.9772V18.9925C20.458 19.2158 20.5448 19.43 20.6995 19.5878C20.854 19.7457 21.0637 19.8344 21.2824 19.8344C21.5011 19.8344 21.7108 19.7457 21.8654 19.5878C22.02 19.43 22.1069 19.2158 22.1069 18.9925V18.0175C22.113 17.902 22.0947 17.7864 22.0532 17.6788C22.0117 17.5711 21.948 17.4738 21.8664 17.3936C21.7848 17.3133 21.6872 17.2519 21.5804 17.2136C21.4735 17.1753 21.3597 17.1609 21.2469 17.1715ZM10.7855 21.0632C10.5016 21.0545 10.2268 20.9591 9.99652 20.7892V26.6308C9.99652 26.8552 10.0838 27.0704 10.2392 27.2291C10.3945 27.3877 10.6052 27.4768 10.8249 27.4768C11.0446 27.4768 11.2553 27.3877 11.4107 27.2291C11.566 27.0704 11.6533 26.8552 11.6533 26.6308V20.8295C11.3957 20.9996 11.0917 21.0815 10.7855 21.0632ZM18.6749 15.4231C18.568 15.4176 18.4612 15.4344 18.3609 15.4724C18.2606 15.5105 18.1689 15.569 18.0914 15.6443C18.0139 15.7197 17.9523 15.8104 17.9101 15.9108C17.8681 16.0113 17.8464 16.1195 17.8465 16.2288V20.7167C17.8465 20.9411 17.9338 21.1563 18.0891 21.315C18.2446 21.4736 18.4552 21.5627 18.6749 21.5627C18.8947 21.5627 19.1054 21.4736 19.2607 21.315C19.4161 21.1563 19.5033 20.9411 19.5033 20.7167V16.2852C19.5096 16.1689 19.4912 16.0527 19.4492 15.9444C19.4072 15.8361 19.3429 15.7383 19.2603 15.6579C19.1778 15.5775 19.0793 15.5163 18.9714 15.4786C18.8636 15.4408 18.7489 15.4273 18.6355 15.4392L18.6749 15.4231ZM16.0556 17.1473C15.7584 17.1452 15.4692 17.0496 15.2272 16.8734V22.7311C15.2272 22.9555 15.3145 23.1707 15.4698 23.3293C15.6253 23.488 15.8359 23.5771 16.0556 23.5771C16.2754 23.5771 16.486 23.488 16.6414 23.3293C16.7968 23.1707 16.884 22.9555 16.884 22.7311V16.8814C16.6338 17.0718 16.3282 17.1711 16.0162 17.1634L16.0556 17.1473ZM8.99456 21.6353V5.27082C8.99248 5.07134 8.91343 4.88077 8.77458 4.74047C8.63572 4.60016 8.44828 4.52148 8.25295 4.52148H8.07938C7.88405 4.52148 7.69661 4.60016 7.55775 4.74047C7.4189 4.88077 7.33984 5.07134 7.33777 5.27082V21.6353C7.33777 21.8361 7.41591 22.0288 7.55498 22.1708C7.69406 22.3129 7.88269 22.3927 8.07938 22.3927H8.25295C8.44964 22.3927 8.63827 22.3129 8.77734 22.1708C8.91643 22.0288 8.99456 21.8361 8.99456 21.6353ZM10.8723 20.4428H10.6987C10.502 20.4428 10.3134 20.363 10.1743 20.221C10.0352 20.0789 9.95707 19.8863 9.95707 19.6854V7.22069C9.95916 7.02122 10.0382 6.83064 10.1771 6.69034C10.3159 6.55004 10.5034 6.47135 10.6987 6.47136H10.8723C11.0676 6.47135 11.255 6.55004 11.3939 6.69034C11.5327 6.83064 11.6118 7.02122 11.6139 7.22069V19.7015C11.6139 19.9024 11.5357 20.095 11.3967 20.2371C11.2576 20.3791 11.0689 20.4589 10.8723 20.4589V20.4428ZM13.4837 18.5251H13.3022C13.1077 18.5251 12.921 18.4462 12.7834 18.3056C12.6458 18.1651 12.5685 17.9746 12.5685 17.7758V9.15445C12.5675 9.05537 12.5857 8.95706 12.6221 8.86522C12.6584 8.77337 12.7123 8.68982 12.7806 8.61938C12.8488 8.54894 12.9301 8.49302 13.0196 8.45487C13.1092 8.41671 13.2052 8.39705 13.3022 8.39706H13.4837C13.679 8.39919 13.8656 8.47992 14.003 8.62172C14.1404 8.76353 14.2174 8.95497 14.2174 9.15445V17.7758C14.2174 17.9746 14.1401 18.1651 14.0025 18.3056C13.8649 18.4462 13.6783 18.5251 13.4837 18.5251ZM16.0951 16.5511H15.9294C15.7341 16.5511 15.5466 16.4724 15.4078 16.3321C15.2689 16.1918 15.1898 16.0013 15.1878 15.8018V11.1607C15.1813 11.0573 15.1957 10.9536 15.2301 10.856C15.2644 10.7585 15.3181 10.6691 15.3876 10.5937C15.4571 10.5181 15.541 10.458 15.6343 10.4169C15.7274 10.3759 15.8279 10.3548 15.9294 10.355H16.103C16.2997 10.355 16.4883 10.4348 16.6274 10.5768C16.7665 10.7189 16.8446 10.9115 16.8446 11.1124V15.7856C16.8456 15.8858 16.8272 15.9851 16.7904 16.078C16.7536 16.1708 16.6992 16.2552 16.6301 16.3264C16.5612 16.3976 16.4791 16.4541 16.3886 16.4927C16.2981 16.5313 16.201 16.5511 16.103 16.5511H16.0951ZM18.7144 14.8188H18.5408C18.3441 14.8188 18.1555 14.739 18.0164 14.5969C17.8773 14.4549 17.7992 14.2622 17.7992 14.0614V12.8608C17.8013 12.6613 17.8803 12.4708 18.0192 12.3305C18.158 12.1901 18.3455 12.1115 18.5408 12.1115H18.7144C18.9097 12.1115 19.0972 12.1901 19.236 12.3305C19.3749 12.4708 19.4539 12.6613 19.456 12.8608V14.0614C19.456 14.2609 19.379 14.4523 19.2416 14.5941C19.1042 14.7359 18.9176 14.8167 18.7223 14.8188H18.7144Z" fill="#FA6F33"/>
</g>
</svg>
