<svg width="112" height="32" viewBox="0 0 112 32" fill="none" xmlns="http://www.w3.org/2000/svg">
<g style="mix-blend-mode:luminosity">
<path d="M10.728 14.7078C11.3182 12.3355 12.6852 10.2289 14.6111 8.72342C16.5371 7.2179 18.9115 6.40002 21.356 6.40002C23.8006 6.40002 26.1749 7.2179 28.1009 8.72342C30.0269 10.2289 31.3938 12.3355 31.984 14.7078H31.024C29.4046 14.6839 27.8183 15.1679 26.488 16.0918C26.4112 16.1474 26.3311 16.1982 26.248 16.2438H26.136C26.053 16.1982 25.9728 16.1474 25.896 16.0918C24.5539 15.1893 22.9733 14.7073 21.356 14.7073C19.7387 14.7073 18.1581 15.1893 16.816 16.0918C16.7392 16.1474 16.6591 16.1982 16.576 16.2438H16.464C16.381 16.1982 16.3008 16.1474 16.224 16.0918C14.8937 15.1679 13.3075 14.6839 11.688 14.7078H10.728ZM29.296 19.7238C29.7888 19.34 30.3996 19.1392 31.024 19.1558H32.312V16.5878H31.024C29.9242 16.5745 28.8495 16.9168 27.96 17.5638C27.4595 17.9328 26.8539 18.1319 26.232 18.1319C25.6101 18.1319 25.0046 17.9328 24.504 17.5638C23.5919 16.9289 22.5073 16.5885 21.396 16.5885C20.2847 16.5885 19.2001 16.9289 18.288 17.5638C17.7875 17.9328 17.1819 18.1319 16.56 18.1319C15.9381 18.1319 15.3326 17.9328 14.832 17.5638C13.9315 16.9085 12.8415 16.5658 11.728 16.5878H10.4V19.1558H11.688C12.3124 19.1392 12.9232 19.34 13.416 19.7238C14.3264 20.3591 15.4099 20.6998 16.52 20.6998C17.6302 20.6998 18.7136 20.3591 19.624 19.7238C20.1175 19.3412 20.7278 19.1406 21.352 19.1558C21.9767 19.1379 22.5879 19.3388 23.08 19.7238C23.9921 20.3587 25.0767 20.6991 26.188 20.6991C27.2993 20.6991 28.3839 20.3587 29.296 19.7238ZM29.296 24.3158C29.7888 23.932 30.3996 23.7312 31.024 23.7478H32.312V21.1798H31.024C29.9242 21.1665 28.8495 21.5088 27.96 22.1558C27.4595 22.5248 26.8539 22.7239 26.232 22.7239C25.6101 22.7239 25.0046 22.5248 24.504 22.1558C23.5919 21.5209 22.5073 21.1806 21.396 21.1806C20.2847 21.1806 19.2001 21.5209 18.288 22.1558C17.7875 22.5248 17.1819 22.7239 16.56 22.7239C15.9381 22.7239 15.3326 22.5248 14.832 22.1558C13.9315 21.5006 12.8415 21.1578 11.728 21.1798H10.4V23.7478H11.688C12.3124 23.7312 12.9232 23.932 13.416 24.3158C14.3264 24.9511 15.4099 25.2918 16.52 25.2918C17.6302 25.2918 18.7136 24.9511 19.624 24.3158C20.1175 23.9332 20.7278 23.7326 21.352 23.7478C21.9767 23.7299 22.5879 23.9308 23.08 24.3158C23.9921 24.9507 25.0767 25.2911 26.188 25.2911C27.2993 25.2911 28.3839 24.9507 29.296 24.3158Z" fill="#9A6EE7"/>
<g opacity="0.5">
<path d="M46.2854 21.8025C49.3316 21.8025 51.527 20.0855 51.7482 17.5355H49.1955C48.9913 18.7595 47.817 19.5925 46.2854 19.5925C44.3623 19.5925 42.8818 18.2665 42.8818 15.7165C42.8818 13.1665 44.3623 11.8235 46.2854 11.8235C47.783 11.8235 48.9572 12.6565 49.1274 13.8975H51.7993C51.4759 11.3305 49.2806 9.63049 46.2854 9.63049C43.103 9.63049 40.312 11.7045 40.312 15.7165C40.312 19.7285 43.0519 21.8025 46.2854 21.8025Z" fill="black"/>
<path d="M56.4856 12.9625C54.1371 12.9625 52.7416 14.3395 52.6395 16.0565H54.7498C54.7838 15.3425 55.3114 14.6965 56.3495 14.6965C57.3195 14.6965 57.8811 15.1895 57.8811 15.9035C57.8811 16.2605 57.6599 16.5325 57.2344 16.5325H55.7879C53.9159 16.5325 52.6566 17.5525 52.6566 19.2355C52.6566 20.6975 53.7968 21.8025 55.4646 21.8025C56.6388 21.8025 57.5918 21.2755 57.8811 20.4765V21.6665H60.2296V16.1585C60.2296 14.2205 58.647 12.9625 56.4856 12.9625ZM56.0602 20.0855C55.3965 20.0855 54.92 19.6945 54.92 19.1335C54.92 18.4705 55.4305 18.0285 56.1453 18.0285H57.8811V18.1475C57.8811 19.2355 57.2174 20.0855 56.0602 20.0855Z" fill="black"/>
<path d="M61.8195 25.1345H64.185V20.9015C64.6445 21.4795 65.4783 21.8025 66.4484 21.8025C68.916 21.8025 70.5839 20.0515 70.5839 17.3825C70.5839 14.7135 69.0522 12.9625 66.6527 12.9625C65.5464 12.9625 64.6955 13.3705 64.185 14.0335V13.0985H61.8195V25.1345ZM66.1591 19.7625C64.8827 19.7625 64.0488 18.8105 64.0488 17.3825C64.0488 15.9375 64.8827 14.9855 66.1591 14.9855C67.4015 14.9855 68.2523 15.9375 68.2523 17.3825C68.2523 18.8105 67.4015 19.7625 66.1591 19.7625Z" fill="black"/>
<path d="M74.749 21.8025C76.7571 21.8025 78.0846 20.7315 78.0846 19.0995C78.0846 15.2235 73.3875 17.2125 73.3875 15.4615C73.3875 14.9175 73.847 14.6285 74.5107 14.6285C75.1574 14.6285 75.8211 15.0195 75.9233 15.7505H77.9825C77.8974 14.0675 76.5019 12.9625 74.4427 12.9625C72.6898 12.9625 71.3794 14.0335 71.3794 15.5465C71.3794 19.1505 75.9914 17.4335 75.9914 19.1845C75.9914 19.6605 75.4808 20.0175 74.749 20.0175C73.8641 20.0175 73.2684 19.5415 73.1834 18.7765H71.1411C71.2262 20.6295 72.6558 21.8025 74.749 21.8025Z" fill="black"/>
<path d="M87.4277 13.0984H85.0453V17.7904C85.0453 18.8784 84.3133 19.6944 83.2749 19.6944C82.3053 19.6944 81.6245 18.9464 81.6245 17.9093V13.0984H79.2589V18.4364C79.2589 20.3913 80.5181 21.8024 82.4413 21.8024C83.6157 21.8024 84.5685 21.2924 85.0453 20.4764V21.6664H87.4277V13.0984Z" fill="black"/>
<path d="M89.1292 21.6664H91.4948V9.37537H89.1292V21.6664Z" fill="black"/>
<path d="M98.9293 18.7595C98.7421 19.4905 98.1125 19.8645 97.1597 19.8645C95.9677 19.8645 95.2021 19.1165 95.0317 17.9095H101.193C101.209 17.7225 101.227 17.4675 101.227 17.1445C101.227 15.1895 100.018 12.9625 96.9893 12.9625C94.0789 12.9625 92.7517 15.1895 92.7517 17.3655C92.7517 19.5245 94.2493 21.8025 97.1597 21.8025C99.2693 21.8025 100.904 20.6125 101.244 18.7595H98.9293ZM96.9893 14.6965C98.1293 14.6965 98.7933 15.4615 98.8613 16.4135H95.0661C95.2701 15.2235 95.9173 14.6965 96.9893 14.6965Z" fill="black"/>
</g>
</g>
</svg>
