<svg width="112" height="32" viewBox="0 0 112 32" fill="none" xmlns="http://www.w3.org/2000/svg">
<g style="mix-blend-mode:luminosity" opacity="0.5">
<path d="M28.3771 20.8184V8.00792H36.4408V10.204H30.7424V13.2602H35.9391V15.4563H30.7424V18.6223H36.5483V20.8184H28.3771Z" fill="black"/>
<path d="M37.475 24.4785V11.7413H39.697V12.8393H40.0195C40.2226 12.4855 40.5392 12.1744 40.9692 11.906C41.3993 11.6254 42.0145 11.485 42.8149 11.485C43.5317 11.485 44.1947 11.6681 44.804 12.0341C45.4133 12.3879 45.903 12.9125 46.2734 13.6079C46.6437 14.3033 46.8289 15.1452 46.8289 16.1334V16.4262C46.8289 17.4145 46.6437 18.2563 46.2734 18.9517C45.903 19.6471 45.4133 20.1779 44.804 20.5439C44.1947 20.8977 43.5317 21.0746 42.8149 21.0746C42.2774 21.0746 41.8234 21.0075 41.4531 20.8733C41.0947 20.7513 40.802 20.5927 40.575 20.3975C40.36 20.1901 40.1868 19.9827 40.0553 19.7753H39.7328V24.4785H37.475ZM42.134 19.0615C42.8388 19.0615 43.4182 18.8358 43.8722 18.3844C44.3381 17.9208 44.571 17.2498 44.571 16.3713V16.1883C44.571 15.3099 44.3381 14.645 43.8722 14.1935C43.4063 13.7299 42.8269 13.4981 42.134 13.4981C41.4411 13.4981 40.8617 13.7299 40.3958 14.1935C39.9299 14.645 39.697 15.3099 39.697 16.1883V16.3713C39.697 17.2498 39.9299 17.9208 40.3958 18.3844C40.8617 18.8358 41.4411 19.0615 42.134 19.0615Z" fill="black"/>
<path d="M48.0061 20.8184V11.7413H50.264V20.8184H48.0061ZM49.135 10.6798C48.7289 10.6798 48.3824 10.5456 48.0957 10.2772C47.8209 10.0088 47.6836 9.65498 47.6836 9.21576C47.6836 8.77655 47.8209 8.42273 48.0957 8.15432C48.3824 7.88591 48.7289 7.75171 49.135 7.75171C49.5531 7.75171 49.8996 7.88591 50.1744 8.15432C50.4491 8.42273 50.5865 8.77655 50.5865 9.21576C50.5865 9.65498 50.4491 10.0088 50.1744 10.2772C49.8996 10.5456 49.5531 10.6798 49.135 10.6798Z" fill="black"/>
<path d="M56.0452 21.0746C55.1851 21.0746 54.4026 20.8916 53.6978 20.5256C53.0049 20.1596 52.4553 19.6288 52.0492 18.9334C51.643 18.238 51.4399 17.3962 51.4399 16.4079V16.1517C51.4399 15.1635 51.643 14.3217 52.0492 13.6262C52.4553 12.9308 53.0049 12.4001 53.6978 12.0341C54.4026 11.6681 55.1851 11.485 56.0452 11.485C56.8934 11.485 57.6221 11.6376 58.2314 11.9426C58.8406 12.2476 59.3304 12.6685 59.7008 13.2053C60.083 13.7299 60.3339 14.3278 60.4534 14.9988L58.2672 15.4746C58.2194 15.1086 58.1119 14.7792 57.9447 14.4864C57.7774 14.1935 57.5385 13.9617 57.2279 13.7909C56.9292 13.6201 56.5529 13.5347 56.099 13.5347C55.645 13.5347 55.2329 13.6384 54.8625 13.8458C54.5041 14.041 54.2174 14.34 54.0024 14.7426C53.7993 15.133 53.6978 15.6149 53.6978 16.1883V16.3713C53.6978 16.9447 53.7993 17.4328 54.0024 17.8354C54.2174 18.2258 54.5041 18.5247 54.8625 18.7321C55.2329 18.9273 55.645 19.0249 56.099 19.0249C56.7799 19.0249 57.2936 18.848 57.64 18.4942C57.9984 18.1282 58.2254 17.6524 58.321 17.0668L60.5071 17.5975C60.3518 18.2441 60.083 18.8358 59.7008 19.3726C59.3304 19.8973 58.8406 20.3121 58.2314 20.6171C57.6221 20.9221 56.8934 21.0746 56.0452 21.0746Z" fill="black"/>
<path d="M64.8604 20.9648C64.1675 20.9648 63.5583 20.8062 63.0326 20.489C62.519 20.1596 62.1188 19.7081 61.832 19.1347C61.5453 18.5613 61.402 17.9025 61.402 17.1583V11.7413H63.6598V16.9752C63.6598 17.6585 63.8211 18.1709 64.1436 18.5125C64.4781 18.8541 64.95 19.0249 65.5593 19.0249C66.2522 19.0249 66.7897 18.7931 67.172 18.3295C67.5543 17.8537 67.7454 17.1949 67.7454 16.353V11.7413H70.0033V20.8184H67.7813V19.6288H67.4587C67.3154 19.9339 67.0466 20.2328 66.6524 20.5256C66.2581 20.8184 65.6608 20.9648 64.8604 20.9648Z" fill="black"/>
<path d="M71.6198 20.8184V11.7413H73.8418V12.7661H74.1644C74.2958 12.4001 74.5108 12.1317 74.8095 11.9609C75.1201 11.7901 75.4785 11.7047 75.8846 11.7047H76.9598V13.7543H75.8488C75.2754 13.7543 74.8035 13.9129 74.4332 14.2301C74.0628 14.5352 73.8777 15.011 73.8777 15.6576V20.8184H71.6198Z" fill="black"/>
<path d="M77.8286 20.8184V11.7413H80.0865V20.8184H77.8286ZM78.9575 10.6798C78.5514 10.6798 78.2049 10.5456 77.9182 10.2772C77.6434 10.0088 77.5061 9.65498 77.5061 9.21576C77.5061 8.77655 77.6434 8.42273 77.9182 8.15432C78.2049 7.88591 78.5514 7.75171 78.9575 7.75171C79.3757 7.75171 79.7221 7.88591 79.9969 8.15432C80.2716 8.42273 80.409 8.77655 80.409 9.21576C80.409 9.65498 80.2716 10.0088 79.9969 10.2772C79.7221 10.5456 79.3757 10.6798 78.9575 10.6798Z" fill="black"/>
<path d="M85.9215 21.0746C85.0374 21.0746 84.243 20.8916 83.5382 20.5256C82.8334 20.1596 82.2779 19.6288 81.8717 18.9334C81.4655 18.238 81.2624 17.4023 81.2624 16.4262V16.1334C81.2624 15.1574 81.4655 14.3217 81.8717 13.6262C82.2779 12.9308 82.8334 12.4001 83.5382 12.0341C84.243 11.6681 85.0374 11.485 85.9215 11.485C86.8055 11.485 87.5999 11.6681 88.3047 12.0341C89.0096 12.4001 89.5651 12.9308 89.9712 13.6262C90.3774 14.3217 90.5805 15.1574 90.5805 16.1334V16.4262C90.5805 17.4023 90.3774 18.238 89.9712 18.9334C89.5651 19.6288 89.0096 20.1596 88.3047 20.5256C87.5999 20.8916 86.8055 21.0746 85.9215 21.0746ZM85.9215 19.0249C86.6143 19.0249 87.1878 18.7992 87.6417 18.3478C88.0957 17.8842 88.3227 17.2254 88.3227 16.3713V16.1883C88.3227 15.3343 88.0957 14.6816 87.6417 14.2301C87.1997 13.7665 86.6263 13.5347 85.9215 13.5347C85.2286 13.5347 84.6552 13.7665 84.2012 14.2301C83.7472 14.6816 83.5203 15.3343 83.5203 16.1883V16.3713C83.5203 17.2254 83.7472 17.8842 84.2012 18.3478C84.6552 18.7992 85.2286 19.0249 85.9215 19.0249Z" fill="black"/>
<path d="M95.1554 20.9648C94.4625 20.9648 93.8533 20.8062 93.3276 20.489C92.8139 20.1596 92.4137 19.7081 92.127 19.1347C91.8403 18.5613 91.697 17.9025 91.697 17.1583V11.7413H93.9548V16.9752C93.9548 17.6585 94.1161 18.1709 94.4386 18.5125C94.7731 18.8541 95.245 19.0249 95.8543 19.0249C96.5472 19.0249 97.0847 18.7931 97.467 18.3295C97.8493 17.8537 98.0404 17.1949 98.0404 16.353V11.7413H100.298V20.8184H98.0763V19.6288H97.7537C97.6104 19.9339 97.3416 20.2328 96.9474 20.5256C96.5531 20.8184 95.9558 20.9648 95.1554 20.9648Z" fill="black"/>
<path d="M105.606 21.0746C104.447 21.0746 103.498 20.8184 102.757 20.306C102.016 19.7936 101.568 19.0615 101.413 18.1099L103.492 17.5609C103.575 17.9879 103.713 18.3234 103.904 18.5674C104.107 18.8114 104.352 18.9883 104.639 19.0981C104.937 19.1957 105.26 19.2445 105.606 19.2445C106.132 19.2445 106.52 19.153 106.771 18.97C107.022 18.7748 107.147 18.5369 107.147 18.2563C107.147 17.9757 107.028 17.7622 106.789 17.6158C106.55 17.4572 106.168 17.3291 105.642 17.2315L105.14 17.14C104.519 17.0179 103.952 16.8532 103.438 16.6458C102.924 16.4262 102.512 16.1273 102.202 15.7491C101.891 15.3709 101.736 14.8829 101.736 14.285C101.736 13.3822 102.058 12.6929 102.703 12.2171C103.348 11.7291 104.197 11.485 105.248 11.485C106.239 11.485 107.064 11.7108 107.721 12.1622C108.378 12.6136 108.808 13.2053 109.011 13.9373L106.914 14.5962C106.819 14.1325 106.622 13.8031 106.323 13.6079C106.036 13.4127 105.678 13.3151 105.248 13.3151C104.818 13.3151 104.489 13.3944 104.262 13.553C104.035 13.6994 103.922 13.9068 103.922 14.1752C103.922 14.4681 104.041 14.6877 104.28 14.8341C104.519 14.9683 104.842 15.072 105.248 15.1452L105.75 15.2367C106.419 15.3587 107.022 15.5234 107.559 15.7308C108.109 15.926 108.539 16.2127 108.85 16.5909C109.172 16.9569 109.333 17.4572 109.333 18.0916C109.333 19.0432 108.993 19.7814 108.312 20.306C107.643 20.8184 106.741 21.0746 105.606 21.0746Z" fill="black"/>
<path d="M2.66663 24.0775C5.94295 24.0775 8.5989 21.3649 8.5989 18.019C8.5989 14.6729 5.94295 11.9604 2.66663 11.9604V16.2014C3.64951 16.2014 4.4463 17.0151 4.4463 18.019C4.4463 19.0228 3.64951 19.8365 2.66663 19.8365V24.0775Z" fill="black"/>
<path d="M22.4411 13.9801C21.4274 13.6522 20.3478 13.4752 19.2278 13.4752C13.3577 13.4752 8.59912 18.3351 8.59912 24.33C8.59912 24.9318 8.64707 25.5221 8.73924 26.0971H15.3432C15.1074 25.5573 14.9764 24.9593 14.9764 24.33C14.9764 21.9321 16.8798 19.9881 19.2278 19.9881C20.5111 19.9881 21.6616 20.5688 22.4411 21.4869V13.9801Z" fill="black"/>
<path d="M3.70959 5.9021C4.20142 10.4459 7.97346 13.9801 12.5537 13.9801C17.1339 13.9801 20.906 10.4459 21.3978 5.9021H15.0341C14.6413 6.90792 13.6787 7.61867 12.5537 7.61867C11.4287 7.61867 10.4662 6.90792 10.0733 5.9021H3.70959Z" fill="black"/>
</g>
</svg>
