<svg width="44" height="42" viewBox="0 0 44 42" fill="none" xmlns="http://www.w3.org/2000/svg">
<path d="M42.8306 28.7709C39.2742 27.4355 37.1009 23.857 36.2258 23.0128C35.3508 22.1686 34.0242 20.8112 34.0242 20.8112M34.0242 20.8112L32.754 22.0814L24.879 29.4483M34.0242 20.8112V20.8112C35.1279 19.3764 36.121 17.2346 34.6699 16.1524C34.3014 15.8776 33.8145 15.6857 33.1774 15.6459M33.1774 15.6459L29.98 18.8637M33.1774 15.6459C33.2903 14.6015 32.9234 12.4451 30.5524 12.1741M30.5524 12.1741L27.04 15.54M30.5524 12.1741C30.9194 10.9604 30.9419 8.54991 28.0968 8.61765M28.0968 8.61765L24.52 12.1741M28.0968 8.61765C28.7177 7.20636 29.0452 4.55314 25.3871 5.23056M25.3871 5.23056L22 8.61765M25.3871 5.23056C20.9839 3.13055 18.754 3.67814 18.1895 4.21444M22 8.61765C20.8992 8.36362 18.596 7.12734 18.1895 4.21444M22 8.61765C23.6258 11.8015 21.1532 12.541 19.7137 12.5128M18.1895 4.21444C14.125 3.40154 14.5766 6.41607 15.3105 8.02495M1 28.3475C5.40323 26.8428 6.44369 24.1919 7.43548 23.2669C8.42728 22.3418 9.89113 20.8112 9.89113 20.8112M9.89113 20.8112V20.8112C8.7442 19.5551 7.74825 17.5622 9.08074 16.5049C9.53273 16.1463 10.1761 15.9442 11.0766 16.0693M9.89113 20.8112C13.075 22.3692 13.7016 19.9927 13.6169 18.6096M11.0766 16.0693L13.6169 18.6096M11.0766 16.0693V16.0693C10.304 15.1311 9.6499 13.9053 10.1699 12.8067C10.5155 12.0768 11.2139 11.5376 12.5161 11.7979M13.6169 18.6096C16.5976 18.9483 17.004 16.7749 16.8347 15.6459M16.8347 15.6459L12.8133 11.9528C12.7294 11.8758 12.6277 11.8202 12.5161 11.7979V11.7979M16.8347 15.6459C20.0185 15.6459 20.0806 13.5572 19.7137 12.5128M12.5161 11.7979C12.0645 10.258 11.9911 7.34753 15.3105 8.02495M15.3105 8.02495L19.7137 12.5128M24.879 29.4483V29.4483C21.5272 29.4483 18.2329 30.5039 15.7187 32.7205C13.5266 34.6532 11.34 36.8447 10.6532 38.3395M24.879 29.4483C24.879 29.4483 30.6371 34.0403 33.1774 38.3395" stroke="black" stroke-linecap="round"/>
</svg>
