<svg width="112" height="32" viewBox="0 0 112 32" fill="none" xmlns="http://www.w3.org/2000/svg">
<g style="mix-blend-mode:luminosity">
<g opacity="0.5">
<path d="M46.5555 20.427C49.234 20.427 51.0424 19.033 51.0424 16.806C51.0424 12.097 44.7641 14.103 44.7641 11.621C44.7641 10.924 45.3954 10.448 46.402 10.448C47.545 10.448 48.2615 11.06 48.3468 11.995H50.7864C50.7182 9.73397 48.978 8.255 46.402 8.255C43.9794 8.255 42.2733 9.649 42.2733 11.621C42.2733 16.296 48.4662 14.511 48.4662 16.84C48.4662 17.741 47.6985 18.217 46.5555 18.217C45.293 18.217 44.4912 17.452 44.3888 16.245H41.9321C42.0345 18.778 43.8429 20.427 46.5555 20.427Z" fill="black"/>
<path d="M51.6223 23.7589H53.9937V19.5259C54.4543 20.1039 55.2902 20.4269 56.2627 20.4269C58.7364 20.4269 60.4083 18.6759 60.4083 16.0069C60.4083 13.3379 58.8729 11.5869 56.4674 11.5869C55.3585 11.5869 54.5055 11.9949 53.9937 12.6579V11.7229H51.6223V23.7589ZM55.9726 18.3869C54.6931 18.3869 53.8572 17.4349 53.8572 16.0069C53.8572 14.5619 54.6931 13.6099 55.9726 13.6099C57.2181 13.6099 58.071 14.5619 58.071 16.0069C58.071 17.4349 57.2181 18.3869 55.9726 18.3869Z" fill="black"/>
<path d="M60.9819 20.291H63.3534V15.599C63.3534 14.494 64.0869 13.695 65.1276 13.695C66.1171 13.695 66.7995 14.443 66.7995 15.48V20.291H69.1709V14.953C69.1709 12.981 67.9084 11.587 65.9807 11.587C64.7864 11.587 63.8481 12.08 63.3534 12.913V8H60.9819V20.291Z" fill="black"/>
<path d="M75.8047 17.3839C75.617 18.1149 74.9858 18.4889 74.0305 18.4889C72.8362 18.4889 72.0685 17.7409 71.8979 16.5339H78.0737C78.0908 16.3469 78.1078 16.0919 78.1078 15.7689C78.1078 13.8139 76.8965 11.5869 73.8598 11.5869C70.9425 11.5869 69.6118 13.8139 69.6118 15.9899C69.6118 18.1489 71.1131 20.4269 74.0305 20.4269C76.1459 20.4269 77.7837 19.2369 78.1249 17.3839H75.8047ZM73.8598 13.3209C75.0029 13.3209 75.6682 14.0859 75.7365 15.0379H71.932C72.1368 13.8479 72.785 13.3209 73.8598 13.3209Z" fill="black"/>
<path d="M84.327 13.6949V11.7229H83.1038C82.063 11.7229 81.4148 12.0799 80.9542 13.1509V11.7229H78.5657V20.2909H80.9542V16.1259C80.9542 14.6639 81.483 13.6949 82.6598 13.6949H84.327Z" fill="black"/>
<path d="M92.5165 11.7229H90.1277V16.4149C90.1277 17.5029 89.3941 18.3189 88.3533 18.3189C87.3813 18.3189 86.6989 17.5709 86.6989 16.5339V11.7229H84.3269V17.0609C84.3269 19.0159 85.5893 20.4269 87.5173 20.4269C88.6949 20.4269 89.6501 19.9169 90.1277 19.1009V20.2909H92.5165V11.7229Z" fill="black"/>
<path d="M93.5396 20.291H95.9108V8H93.5396V20.291Z" fill="black"/>
<path d="M102.681 17.3839C102.493 18.1149 101.862 18.4889 100.907 18.4889C99.7125 18.4889 98.9453 17.7409 98.7749 16.5339H104.95C104.968 16.3469 104.985 16.0919 104.985 15.7689C104.985 13.8139 103.773 11.5869 100.737 11.5869C97.8189 11.5869 96.4885 13.8139 96.4885 15.9899C96.4885 18.1489 97.9901 20.4269 100.907 20.4269C103.023 20.4269 104.661 19.2369 105.001 17.3839H102.681ZM100.737 13.3209C101.88 13.3209 102.545 14.0859 102.613 15.0379H98.8085C99.0133 13.8479 99.6613 13.3209 100.737 13.3209Z" fill="black"/>
</g>
<path d="M15.5575 23.1744C13.1685 25.5634 9.12258 25.5538 7.99266 22.3699C7.77143 21.7466 7.59456 21.1056 7.46447 20.4516C6.9333 17.7812 7.20592 15.0134 8.24783 12.4979C9.28974 9.98256 11.0542 7.83261 13.318 6.31998C15.5818 4.80736 18.2433 4 20.966 4C23.6886 4 26.3501 4.80736 28.6139 6.31998C30.8777 7.83261 32.6421 9.98256 33.684 12.498C34.726 15.0134 34.9985 17.7812 34.4674 20.4516C34.3373 21.1056 34.1604 21.7466 33.9392 22.3699C32.8092 25.5538 28.7633 25.5634 26.3744 23.1744L22.6867 19.4867C22.3344 19.1344 22.3708 18.5534 22.468 18.0647C22.527 17.7677 22.4967 17.4598 22.3808 17.1799C22.2648 16.9001 22.0686 16.6609 21.8168 16.4926C21.5649 16.3244 21.2688 16.2346 20.966 16.2346C20.6631 16.2346 20.367 16.3244 20.1152 16.4926C19.8632 16.6609 19.667 16.9001 19.5511 17.1799C19.4352 17.4598 19.4048 17.7677 19.464 18.0647C19.5612 18.5534 19.5975 19.1344 19.2452 19.4867L15.5575 23.1744Z" fill="url(#paint0_linear_42051_2552)"/>
</g>
<defs>
<linearGradient id="paint0_linear_42051_2552" x1="33.4788" y1="10.883" x2="9.04425" y2="10.883" gradientUnits="userSpaceOnUse">
<stop stop-color="#15EFAE"/>
<stop offset="0.510417" stop-color="#17A6D3"/>
<stop offset="1" stop-color="#2ED5FA"/>
</linearGradient>
</defs>
</svg>
