<svg width="112" height="32" viewBox="0 0 112 32" fill="none" xmlns="http://www.w3.org/2000/svg">
<g style="mix-blend-mode:luminosity">
<path d="M34.7151 16.0001C34.7151 14.9765 34.9071 14.0819 35.2912 13.3166C35.6846 12.5417 36.242 11.9437 36.9633 11.5228C37.694 11.1018 38.5511 10.8914 39.5347 10.8914C40.3029 10.8914 40.9914 11.0444 41.6003 11.3506C42.2092 11.6567 42.701 12.0872 43.0757 12.6421C43.4504 13.197 43.6752 13.838 43.7502 14.5651H41.6425C41.5207 13.9911 41.2631 13.5414 40.8696 13.2161C40.4856 12.8813 40.0031 12.7139 39.4223 12.7139C38.6354 12.7139 38.0125 13.0152 37.5535 13.6179C37.0945 14.2207 36.865 15.0147 36.865 16.0001C36.865 16.9759 37.0945 17.77 37.5535 18.3823C38.0125 18.985 38.6354 19.2864 39.4223 19.2864C40.0031 19.2864 40.4856 19.1237 40.8696 18.7985C41.2631 18.4636 41.5207 18.0092 41.6425 17.4352H43.7502C43.6752 18.1622 43.4504 18.8032 43.0757 19.3581C42.701 19.913 42.2092 20.3435 41.6003 20.6497C40.9914 20.9558 40.3029 21.1089 39.5347 21.1089C38.5511 21.1089 37.694 20.8984 36.9633 20.4775C36.242 20.0565 35.6846 19.4634 35.2912 18.698C34.9071 17.9231 34.7151 17.0238 34.7151 16.0001Z" fill="#D8A356"/>
<path d="M44.2581 10.9775H46.2394V21.0228H44.2581V10.9775Z" fill="#D8A356"/>
<path d="M50.5849 21.1089C49.8261 21.1089 49.1563 20.9558 48.5756 20.6497C48.0041 20.334 47.5592 19.8891 47.2407 19.3151C46.9315 18.7411 46.777 18.0809 46.777 17.3347C46.777 16.5885 46.9315 15.9284 47.2407 15.3543C47.5592 14.7803 48.0041 14.3402 48.5756 14.0341C49.1563 13.7184 49.8261 13.5605 50.5849 13.5605C51.3437 13.5605 52.0088 13.7184 52.5802 14.0341C53.161 14.3402 53.606 14.7803 53.9151 15.3543C54.2336 15.9284 54.3929 16.5885 54.3929 17.3347C54.3929 18.0905 54.2336 18.7554 53.9151 19.3294C53.606 19.8939 53.161 20.334 52.5802 20.6497C52.0088 20.9558 51.3437 21.1089 50.5849 21.1089ZM50.5849 19.4586C51.1376 19.4586 51.5732 19.2625 51.8917 18.8702C52.2196 18.478 52.3835 17.9661 52.3835 17.3347C52.3835 16.7033 52.2196 16.1915 51.8917 15.7992C51.5732 15.407 51.1376 15.2108 50.5849 15.2108C50.0416 15.2108 49.606 15.407 49.2781 15.7992C48.9596 16.1915 48.8004 16.7033 48.8004 17.3347C48.8004 17.9661 48.9596 18.478 49.2781 18.8702C49.606 19.2625 50.0416 19.4586 50.5849 19.4586Z" fill="#D8A356"/>
<path d="M61.7222 13.6466V21.0228H59.9658L59.7831 20.133C59.5302 20.4392 59.2351 20.6784 58.8979 20.8506C58.5607 21.0228 58.1485 21.1089 57.6614 21.1089C56.8183 21.1089 56.1298 20.8458 55.5958 20.3196C55.0618 19.7838 54.7949 18.8941 54.7949 17.6504V13.6466H56.7761V17.4065C56.7761 18.0761 56.8885 18.5832 57.1134 18.9276C57.3476 19.2625 57.7035 19.4299 58.1813 19.4299C58.6778 19.4299 59.0618 19.2433 59.3335 18.8702C59.6052 18.4875 59.741 17.9566 59.741 17.2773V13.6466H61.7222Z" fill="#D8A356"/>
<path d="M69.7601 10.9775V21.0228H68.0318L67.8351 20.0039C67.2824 20.7405 66.533 21.1089 65.5868 21.1089C64.9498 21.1089 64.3784 20.9558 63.8726 20.6497C63.3667 20.334 62.9686 19.8891 62.6782 19.3151C62.3972 18.7411 62.2566 18.0761 62.2566 17.3204C62.2566 16.5741 62.3972 15.9188 62.6782 15.3543C62.9686 14.7803 63.3667 14.3402 63.8726 14.0341C64.3878 13.7184 64.9639 13.5605 65.6009 13.5605C66.5377 13.5605 67.2636 13.8954 67.7789 14.5651V10.9775H69.7601ZM66.0505 19.4586C66.5845 19.4586 67.0107 19.2672 67.3292 18.8846C67.6477 18.4923 67.807 17.9805 67.807 17.3491C67.807 16.7081 67.6477 16.1915 67.3292 15.7992C67.0107 15.407 66.5845 15.2108 66.0505 15.2108C65.5166 15.2108 65.0857 15.407 64.7578 15.7992C64.4393 16.1915 64.2801 16.7033 64.2801 17.3347C64.2801 17.9661 64.4393 18.478 64.7578 18.8702C65.0857 19.2625 65.5166 19.4586 66.0505 19.4586Z" fill="#D8A356"/>
<path d="M70.0173 10.9775L72.1953 10.9631L74.008 18.3105L75.933 10.9775H77.83L79.6988 18.3105L81.5536 10.9775H83.6894L80.9634 21.0228H78.5325L76.8323 14.3498L75.1742 21.0228H72.7433L70.0173 10.9775Z" fill="#D8A356"/>
<path d="M90.3006 19.3151V21.0228H89.2889C88.3803 21.0228 87.9353 20.621 87.954 19.8173C87.6917 20.2383 87.3686 20.5588 86.9845 20.7788C86.6004 20.9989 86.1367 21.1089 85.5934 21.1089C84.7878 21.1089 84.1367 20.9223 83.6402 20.5492C83.1531 20.1665 82.9096 19.6308 82.9096 18.942C82.9096 18.1575 83.1906 17.5547 83.7527 17.1338C84.3241 16.7033 85.1484 16.488 86.2257 16.488H87.659V16.1293C87.659 15.7944 87.5372 15.5313 87.2936 15.34C87.0501 15.1391 86.7222 15.0386 86.31 15.0386C85.9447 15.0386 85.6449 15.12 85.4107 15.2826C85.1765 15.4452 85.036 15.6653 84.9892 15.9427H83.0782C83.1438 15.1869 83.4716 14.6033 84.0618 14.192C84.6519 13.771 85.4341 13.5605 86.4084 13.5605C87.4295 13.5605 88.2163 13.7901 88.769 14.2494C89.3311 14.7086 89.6121 15.3735 89.6121 16.2441V18.8415C89.6121 19.0233 89.6496 19.1476 89.7245 19.2146C89.7995 19.2816 89.9166 19.3151 90.0758 19.3151H90.3006ZM87.659 17.837H86.2117C85.7995 17.837 85.4763 17.9231 85.2421 18.0953C85.0173 18.2579 84.9049 18.4923 84.9049 18.7985C84.9049 19.0568 84.9985 19.2625 85.1859 19.4155C85.3826 19.5686 85.6449 19.6451 85.9728 19.6451C86.488 19.6451 86.8955 19.4968 87.1953 19.2003C87.495 18.8941 87.6496 18.4875 87.659 17.9805V17.837Z" fill="#D8A356"/>
<path d="M90.9687 15.3543H89.7744V13.6466H90.9687V11.5802H92.95V13.6466H94.594V15.3543H92.95V18.5832C92.95 18.8415 93.0015 19.0281 93.1046 19.1429C93.217 19.2577 93.3997 19.3151 93.6526 19.3151H94.6783V21.0228H93.0343C91.6573 21.0228 90.9687 20.3196 90.9687 18.9133V15.3543Z" fill="#D8A356"/>
<path d="M101.783 18.2244C101.652 19.1237 101.277 19.8317 100.659 20.3483C100.05 20.8553 99.2586 21.1089 98.2844 21.1089C97.535 21.1089 96.8793 20.9558 96.3172 20.6497C95.7551 20.334 95.3195 19.8891 95.0104 19.3151C94.7106 18.7411 94.5608 18.0809 94.5608 17.3347C94.5608 16.5789 94.7106 15.9188 95.0104 15.3543C95.3195 14.7803 95.7551 14.3402 96.3172 14.0341C96.8886 13.7184 97.549 13.5605 98.2985 13.5605C99.2633 13.5605 100.05 13.8141 100.659 14.3211C101.268 14.8186 101.643 15.5122 101.783 16.4019H99.7317C99.6474 16.0384 99.4788 15.7514 99.2259 15.5409C98.9729 15.3209 98.6591 15.2108 98.2844 15.2108C97.7692 15.2108 97.357 15.407 97.0479 15.7992C96.7387 16.1915 96.5842 16.7033 96.5842 17.3347C96.5842 17.9661 96.7387 18.478 97.0479 18.8702C97.357 19.2625 97.7692 19.4586 98.2844 19.4586C98.6685 19.4586 98.987 19.3486 99.2399 19.1285C99.5022 18.9085 99.6708 18.6071 99.7458 18.2244H101.783Z" fill="#D8A356"/>
<path d="M106.411 13.5605C107.263 13.5605 107.961 13.8284 108.504 14.3642C109.057 14.8999 109.333 15.7849 109.333 17.019V21.0228H107.352V17.1051C107.352 16.4928 107.23 16.0288 106.987 15.7131C106.743 15.3878 106.378 15.2252 105.891 15.2252C105.385 15.2252 104.987 15.4022 104.696 15.7562C104.415 16.1101 104.275 16.6028 104.275 17.2343V21.0228H102.293V10.9775H104.275V14.5507C104.809 13.8906 105.521 13.5605 106.411 13.5605Z" fill="#D8A356"/>
<path d="M28.5205 16.0001C28.5205 13.1989 27.4309 10.5124 25.4914 8.53172C23.552 6.551 20.9215 5.43823 18.1787 5.43823C15.4359 5.43823 12.8054 6.551 10.866 8.53172C8.92649 10.5124 7.83691 13.1989 7.83691 16.0001H11.0688C12.1397 16.0001 12.9749 15.0835 13.3672 14.0658C13.6247 13.3976 14.0155 12.7835 14.5223 12.2659C15.492 11.2755 16.8073 10.7191 18.1787 10.7191C19.5501 10.7191 20.8654 11.2755 21.8351 12.2659C22.8048 13.2562 23.3496 14.5995 23.3496 16.0001H28.5205Z" fill="url(#paint0_linear_42051_2542)"/>
<path d="M22.5631 20.0417C23.0829 18.7603 23.3504 17.3868 23.3504 15.9999H28.5207C28.5207 21.833 23.8905 26.5616 18.1789 26.5616C17.2845 26.5616 16.4165 26.4457 15.5887 26.2277C16.0571 26.1045 16.5174 25.9475 16.9662 25.7577C18.2209 25.2269 19.361 24.449 20.3213 23.4682C21.2817 22.4874 22.0435 21.3231 22.5631 20.0417Z" fill="#FBCF8E"/>
<path d="M2.66675 15.9999C2.66675 17.3869 2.93425 18.7603 3.45397 20.0418C3.97369 21.3232 4.73546 22.4875 5.69579 23.4683C6.65611 24.449 7.79618 25.227 9.0509 25.7578C10.3056 26.2886 11.6504 26.5617 13.0085 26.5617C14.3666 26.5617 15.7114 26.2886 16.9661 25.7578C18.2209 25.227 19.3609 24.449 20.3213 23.4683C21.2816 22.4875 22.0433 21.3232 22.5631 20.0418C23.0828 18.7603 23.3503 17.3869 23.3503 15.9999H20.1185C19.0475 15.9999 18.2123 16.9164 17.8201 17.9341C17.8089 17.9631 17.7975 17.992 17.7858 18.0208C17.5259 18.6615 17.1451 19.2437 16.6649 19.7341C16.1847 20.2244 15.6147 20.6135 14.9873 20.8789C14.36 21.1443 13.6876 21.2808 13.0085 21.2808C12.3295 21.2808 11.6571 21.1443 11.0297 20.8789C10.4023 20.6135 9.83235 20.2244 9.35215 19.7341C8.87199 19.2437 8.49111 18.6615 8.23125 18.0208C7.97139 17.3801 7.83764 16.6934 7.83764 15.9999H2.66675Z" fill="url(#paint1_linear_42051_2542)"/>
<path d="M2.66821 16.0001C2.66821 10.1669 7.29837 5.43823 13.01 5.43823C13.9042 5.43823 14.772 5.55414 15.5996 5.77207C13.8237 6.2393 12.1854 7.18485 10.8666 8.53173C8.9271 10.5124 7.83754 13.1989 7.83754 16.0001H2.66821Z" fill="#73E5E2"/>
</g>
<defs>
<linearGradient id="paint0_linear_42051_2542" x1="28.5205" y1="10.7191" x2="7.83691" y2="10.7191" gradientUnits="userSpaceOnUse">
<stop stop-color="#73E5E2"/>
<stop offset="1" stop-color="#394F87"/>
</linearGradient>
<linearGradient id="paint1_linear_42051_2542" x1="2.66675" y1="21.2808" x2="23.3504" y2="21.2808" gradientUnits="userSpaceOnUse">
<stop stop-color="#FBDC8E"/>
<stop offset="1" stop-color="#FB958E"/>
</linearGradient>
</defs>
</svg>
