<svg xmlns="http://www.w3.org/2000/svg" xml:space="preserve" id="Artwork" width="519.161px" height="97.188px" x="0" y="0" style="enable-background:new 0 0 519.161 97.188" version="1.1" transform="rotate(0) scale(1, 1)"><style>.st0 { fill: #3e3155; }</style><path d="M104.386 5.511c21.72 0 34.579 13.366 34.579 36.402 0 23.087-12.81 36.655-34.579 36.655H78.615V5.511h25.771zm-14.43 63.236h13.366c15.492 0 24.049-9.467 24.049-26.731 0-17.214-8.607-26.732-24.049-26.732H89.956v53.463zM192.603 62.925c-1.519 9.721-10.733 16.657-22.935 16.657-15.645 0-25.111-10.581-25.111-27.391 0-16.707 9.619-27.846 24.656-27.846 14.783 0 23.997 10.43 23.997 26.58v3.747h-37.616v.658c0 9.265 5.568 15.391 14.327 15.391 6.228 0 10.835-3.139 12.303-7.797h10.379zm-36.959-15.898h26.631c-.253-8.15-5.417-13.872-13.062-13.872s-13.012 5.822-13.569 13.872zM226.184 78.569h-11.746L195.25 25.307h11.645l13.366 42.579h.203l13.365-42.579h11.442l-19.087 53.262zM294.317 62.925c-1.519 9.721-10.733 16.657-22.935 16.657-15.644 0-25.111-10.581-25.111-27.391 0-16.707 9.619-27.846 24.656-27.846 14.783 0 23.997 10.43 23.997 26.58v3.747h-37.616v.658c0 9.265 5.568 15.391 14.327 15.391 6.228 0 10.835-3.139 12.303-7.797h10.379zm-36.958-15.898h26.63c-.253-8.15-5.417-13.872-13.062-13.872s-13.011 5.822-13.568 13.872zM302.651 5.511h10.936v73.058h-10.936V5.511zM320.998 51.938c0-17.112 10.075-27.593 25.264-27.593s25.264 10.48 25.264 27.593c0 17.163-10.024 27.644-25.264 27.644s-25.264-10.481-25.264-27.644zm39.388 0c0-11.796-5.569-18.58-14.125-18.58-8.557 0-14.126 6.784-14.126 18.58 0 11.848 5.569 18.632 14.126 18.632 8.607 0 14.125-6.784 14.125-18.632zM428.915 51.938c0 16.859-8.859 27.542-22.226 27.542-7.645 0-13.721-3.746-16.758-9.67h-.253v26.378h-10.937V25.307h10.582v9.164h.202c3.139-6.126 9.265-10.024 16.961-10.024 13.519 0 22.429 10.632 22.429 27.491zm-11.239 0c0-11.138-5.417-18.276-14.074-18.276-8.354 0-13.974 7.29-13.974 18.276 0 11.088 5.568 18.277 13.974 18.277 8.657.001 14.074-7.087 14.074-18.277zM482.372 62.925c-1.519 9.721-10.733 16.657-22.935 16.657-15.645 0-25.111-10.581-25.111-27.391 0-16.707 9.619-27.846 24.656-27.846 14.783 0 23.997 10.43 23.997 26.58v3.747h-37.616v.658c0 9.265 5.568 15.391 14.327 15.391 6.228 0 10.835-3.139 12.303-7.797h10.379zm-36.959-15.898h26.631c-.253-8.15-5.417-13.872-13.062-13.872s-13.012 5.822-13.569 13.872zM490.923 25.307h10.43v9.062h.253c1.772-6.227 6.531-9.923 12.81-9.923 1.569 0 2.937.253 3.746.405v10.176c-.86-.354-2.784-.607-4.911-.607-7.037 0-11.391 4.709-11.391 12.252v31.896h-10.937V25.307zM47.896 19.129c-6.518-.482-12.048 3.641-15.133 3.641-3.13 0-7.956-3.537-13.073-3.44-6.719.098-12.912 3.91-16.377 9.926C-3.667 41.37 1.53 59.32 8.328 69.15c3.325 4.803 7.291 10.216 12.5 10.019 5.014-.197 6.911-3.243 12.972-3.243 6.057 0 7.766 3.243 13.068 3.146 5.397-.1 8.816-4.903 12.117-9.733 3.82-5.575 5.389-10.973 5.482-11.259-.119-.045-10.52-4.036-10.624-16.019-.094-10.018 8.177-14.834 8.553-15.066-4.693-6.914-11.946-7.677-14.5-7.866zM43.874 12.64C46.642 9.294 48.505 4.635 47.992 0c-3.984.158-8.803 2.654-11.661 5.998-2.559 2.962-4.807 7.706-4.196 12.246 4.44.342 8.973-2.256 11.739-5.604z" class="st0"/></svg>