<svg xmlns="http://www.w3.org/2000/svg" version="1.1" width="270px" height="106px" style="shape-rendering:geometricPrecision; text-rendering:geometricPrecision; image-rendering:optimizeQuality; fill-rule:evenodd; clip-rule:evenodd" xmlns:xlink="http://www.w3.org/1999/xlink" transform="rotate(0) scale(1, 1)">
<g><path style="opacity:1" fill="#19191a" d="M 47.5,23.5 C 67.8932,30.6207 75.3932,44.6207 70,65.5C 66.2647,75.7455 59.098,81.7455 48.5,83.5C 48.6657,79.1539 48.499,74.8206 48,70.5C 47.6258,69.5838 47.1258,68.7504 46.5,68C 49.9927,67.0581 53.326,65.7248 56.5,64C 58.317,62.2002 59.4837,60.0336 60,57.5C 59.6716,50.3836 58.8383,43.3836 57.5,36.5C 54.1415,37.009 50.9748,38.009 48,39.5C 44.2079,38.6898 40.3745,38.3564 36.5,38.5C 35.6236,38.6309 34.9569,38.2975 34.5,37.5C 35.373,35.5866 36.373,33.7533 37.5,32C 36.8333,31.6667 36.1667,31.3333 35.5,31C 39.7559,28.7162 43.7559,26.2162 47.5,23.5 Z"/></g>
<g><path style="opacity:1" fill="#1a1b1c" d="M 128.5,33.5 C 135.59,33.079 137.757,36.079 135,42.5C 130.276,45.1979 127.11,43.8645 125.5,38.5C 125.757,36.3076 126.757,34.6409 128.5,33.5 Z"/></g>
<g><path style="opacity:0.989" fill="#171717" d="M 162.5,32.5 C 165.5,32.5 168.5,32.5 171.5,32.5C 171.5,37.5 171.5,42.5 171.5,47.5C 175.5,47.5 179.5,47.5 183.5,47.5C 183.5,42.5 183.5,37.5 183.5,32.5C 186.833,32.5 190.167,32.5 193.5,32.5C 193.667,46.504 193.5,60.504 193,74.5C 189.943,75.4505 186.777,75.7839 183.5,75.5C 183.5,69.5 183.5,63.5 183.5,57.5C 179.5,57.5 175.5,57.5 171.5,57.5C 171.5,63.5 171.5,69.5 171.5,75.5C 168.223,75.7839 165.057,75.4505 162,74.5C 161.186,60.4252 161.352,46.4252 162.5,32.5 Z"/></g>
<g><path style="opacity:0.997" fill="#171717" d="M 47.5,23.5 C 43.7559,26.2162 39.7559,28.7162 35.5,31C 36.1667,31.3333 36.8333,31.6667 37.5,32C 36.373,33.7533 35.373,35.5866 34.5,37.5C 34.9569,38.2975 35.6236,38.6309 36.5,38.5C 36.0831,39.1239 35.4164,39.4573 34.5,39.5C 32.0297,38.7634 29.6964,37.7634 27.5,36.5C 26.0527,35.1148 25.0527,35.4482 24.5,37.5C 24.2436,39.7925 24.5769,41.9592 25.5,44C 19.1491,56.1132 22.4824,64.2798 35.5,68.5C 31.5459,74.7542 27.5459,74.5876 23.5,68C 22.2411,67.0181 20.9078,66.6848 19.5,67C 21.7433,69.4878 23.7433,72.1544 25.5,75C 27.9554,76.6305 30.4554,76.7972 33,75.5C 33.4974,78.146 33.6641,80.8127 33.5,83.5C 21.937,80.4383 14.437,73.1049 11,61.5C 9.3797,35.6199 21.5464,22.9533 47.5,23.5 Z"/></g>
<g><path style="opacity:0.68" fill="#111111" d="M 27.5,36.5 C 26.391,36.5569 25.391,36.8902 24.5,37.5C 25.0527,35.4482 26.0527,35.1148 27.5,36.5 Z"/></g>
<g><path style="opacity:0.983" fill="#171717" d="M 142.5,37.5 C 145.833,37.5 149.167,37.5 152.5,37.5C 152.5,40.1667 152.5,42.8333 152.5,45.5C 159.238,44.4933 161.238,47.1599 158.5,53.5C 156.604,54.4656 154.604,54.7989 152.5,54.5C 152.334,58.5138 152.501,62.5138 153,66.5C 154.681,68.2941 156.514,68.7941 158.5,68C 160.931,73.2878 159.264,76.1212 153.5,76.5C 148.335,76.5106 144.835,74.1773 143,69.5C 142.501,64.5111 142.334,59.5111 142.5,54.5C 139.07,55.2447 137.403,53.9114 137.5,50.5C 137.403,47.0886 139.07,45.7553 142.5,46.5C 142.5,43.5 142.5,40.5 142.5,37.5 Z"/></g>
<g><path style="opacity:1" fill="#141515" d="M 227.5,32.5 C 230.833,32.5 234.167,32.5 237.5,32.5C 237.5,36.8333 237.5,41.1667 237.5,45.5C 245.477,42.7451 251.311,45.0785 255,52.5C 256.098,59.3846 255.431,66.0513 253,72.5C 247.313,77.4506 241.313,77.784 235,73.5C 232.894,75.291 230.394,75.9577 227.5,75.5C 227.5,61.1667 227.5,46.8333 227.5,32.5 Z M 237.5,53.5 C 243.916,51.7622 246.583,54.0955 245.5,60.5C 246.378,67.0476 243.711,69.3809 237.5,67.5C 237.5,62.8333 237.5,58.1667 237.5,53.5 Z"/></g>
<g><path style="opacity:1" fill="#171717" d="M 103.5,30.5 C 108.978,30.1489 114.311,30.8156 119.5,32.5C 120.458,35.6854 119.958,38.6854 118,41.5C 113.587,40.3676 109.087,40.2009 104.5,41C 102.185,42.1094 100.685,43.9427 100,46.5C 99.1492,52.2531 99.4826,57.9198 101,63.5C 101.833,64.3333 102.667,65.1667 103.5,66C 106.482,66.498 109.482,66.6646 112.5,66.5C 112.5,63.8333 112.5,61.1667 112.5,58.5C 110.5,58.5 108.5,58.5 106.5,58.5C 106.223,55.5525 106.556,52.7191 107.5,50C 112.167,49.3333 116.833,49.3333 121.5,50C 122.814,57.7749 122.814,65.6083 121.5,73.5C 102.072,80.7969 91.0723,74.2969 88.5,54C 88.492,45.684 91.492,38.684 97.5,33C 99.6115,32.1553 101.611,31.322 103.5,30.5 Z"/></g>
<g><path style="opacity:1" fill="#141515" d="M 126.5,45.5 C 129.5,45.5 132.5,45.5 135.5,45.5C 135.5,55.5 135.5,65.5 135.5,75.5C 132.223,75.7839 129.057,75.4505 126,74.5C 125.194,64.756 125.361,55.0893 126.5,45.5 Z"/></g>
<g><path style="opacity:1" fill="#19191a" d="M 197.5,45.5 C 200.448,45.2229 203.281,45.5562 206,46.5C 206.333,53.1667 206.667,59.8333 207,66.5C 209.197,68.7309 211.53,68.7309 214,66.5C 214.5,59.5079 214.666,52.5079 214.5,45.5C 217.777,45.2161 220.943,45.5495 224,46.5C 224.667,55.8333 224.667,65.1667 224,74.5C 218.475,73.9268 212.975,74.5935 207.5,76.5C 202.335,76.5106 198.835,74.1773 197,69.5C 196.2,61.4211 196.367,53.4211 197.5,45.5 Z"/></g>
</svg>